<svg width="46" height="46" viewBox="0 0 46 46" fill="none" xmlns="http://www.w3.org/2000/svg">
<path d="M32.6799 27.96L29.5499 20.65C28.4899 18.17 26.5399 18.07 25.2299 20.43L23.3399 23.84C22.3799 25.57 20.5899 25.72 19.3499 24.17L19.1299 23.89C17.8399 22.27 16.0199 22.47 15.0899 24.32L13.3699 27.77C12.1599 30.17 13.9099 33 16.5899 33H29.3499C31.9499 33 33.6999 30.35 32.6799 27.96Z" stroke="#E9E9E9" stroke-width="1.5" stroke-linecap="round" stroke-linejoin="round"/>
<path d="M17.97 19C19.6268 19 20.97 17.6569 20.97 16C20.97 14.3431 19.6268 13 17.97 13C16.3131 13 14.97 14.3431 14.97 16C14.97 17.6569 16.3131 19 17.97 19Z" stroke="#E9E9E9" stroke-width="1.5" stroke-linecap="round" stroke-linejoin="round"/>
</svg>
