<svg width="290" height="102" viewBox="0 0 290 102" fill="none" xmlns="http://www.w3.org/2000/svg">
<path d="M42.4593 5.67684C42.7674 4.77439 44.0438 4.77439 44.3519 5.67684L45.9198 10.2682C46.0199 10.5612 46.25 10.7913 46.543 10.8914L51.1344 12.4593C52.0368 12.7674 52.0368 14.0438 51.1343 14.3519L46.543 15.9198C46.25 16.0199 46.0199 16.25 45.9198 16.543L44.3519 21.1344C44.0438 22.0368 42.7674 22.0368 42.4593 21.1343L40.8914 16.543C40.7913 16.25 40.5612 16.0199 40.2682 15.9198L35.6768 14.3519C34.7744 14.0438 34.7744 12.7674 35.6768 12.4593L40.2682 10.8914C40.5612 10.7913 40.7913 10.5612 40.8914 10.2682L42.4593 5.67684Z" fill="black"/>
<path d="M22.4593 24.6768C22.7674 23.7744 24.0438 23.7744 24.3519 24.6768L27.1926 32.9954C27.2927 33.2884 27.5228 33.5185 27.8158 33.6186L36.1344 36.4593C37.0368 36.7674 37.0368 38.0438 36.1343 38.3519L27.8158 41.1926C27.5228 41.2927 27.2927 41.5228 27.1926 41.8158L24.3519 50.1344C24.0438 51.0368 22.7674 51.0368 22.4593 50.1343L19.6186 41.8158C19.5185 41.5228 19.2884 41.2927 18.9954 41.1926L10.6768 38.3519C9.77439 38.0438 9.77439 36.7674 10.6768 36.4593L18.9954 33.6186C19.2884 33.5185 19.5185 33.2884 19.6186 32.9954L22.4593 24.6768Z" fill="black"/>
<path d="M50.4593 38.6768C50.7674 37.7744 52.0438 37.7744 52.3519 38.6768L59.2656 58.9225C59.3656 59.2155 59.5957 59.4456 59.8887 59.5456L80.1344 66.4593C81.0368 66.7674 81.0368 68.0438 80.1344 68.3519L59.8887 75.2655C59.5957 75.3656 59.3656 75.5957 59.2656 75.8887L52.3519 96.1344C52.0438 97.0368 50.7674 97.0368 50.4593 96.1344L43.5456 75.8887C43.4456 75.5957 43.2155 75.3656 42.9225 75.2655L22.6768 68.3519C21.7744 68.0438 21.7744 66.7674 22.6768 66.4593L42.9225 59.5456C43.2155 59.4456 43.4456 59.2155 43.5456 58.9225L50.4593 38.6768Z" fill="black"/>
<path d="M146.912 30.9965V81.9056H137.615L115.467 49.8637H115.094V81.9056H104.33V30.9965H113.776L135.751 63.0135H136.198V30.9965H146.912Z" fill="black"/>
<path d="M170.407 82.6513C166.546 82.6513 163.207 81.831 160.39 80.1904C157.589 78.5332 155.426 76.2297 153.902 73.2799C152.377 70.3135 151.615 66.8748 151.615 62.9638C151.615 59.0197 152.377 55.5727 153.902 52.6229C155.426 49.6565 157.589 47.353 160.39 45.7124C163.207 44.0552 166.546 43.2266 170.407 43.2266C174.269 43.2266 177.6 44.0552 180.4 45.7124C183.218 47.353 185.389 49.6565 186.913 52.6229C188.438 55.5727 189.2 59.0197 189.2 62.9638C189.2 66.8748 188.438 70.3135 186.913 73.2799C185.389 76.2297 183.218 78.5332 180.4 80.1904C177.6 81.831 174.269 82.6513 170.407 82.6513ZM170.457 74.4482C172.214 74.4482 173.68 73.9511 174.857 72.9567C176.034 71.9458 176.92 70.5704 177.517 68.8303C178.13 67.0903 178.437 65.1099 178.437 62.8893C178.437 60.6686 178.13 58.6883 177.517 56.9482C176.92 55.2082 176.034 53.8327 174.857 52.8218C173.68 51.8109 172.214 51.3055 170.457 51.3055C168.684 51.3055 167.193 51.8109 165.983 52.8218C164.79 53.8327 163.886 55.2082 163.273 56.9482C162.677 58.6883 162.378 60.6686 162.378 62.8893C162.378 65.1099 162.677 67.0903 163.273 68.8303C163.886 70.5704 164.79 71.9458 165.983 72.9567C167.193 73.9511 168.684 74.4482 170.457 74.4482Z" fill="black"/>
<path d="M228.002 43.7238L214.653 81.9056H202.721L189.373 43.7238H200.559L208.488 71.0427H208.886L216.791 43.7238H228.002Z" fill="black"/>
<path d="M247.141 82.6513C243.213 82.6513 239.833 81.8559 236.999 80.265C234.182 78.6575 232.011 76.3871 230.486 73.4539C228.962 70.5041 228.199 67.0157 228.199 62.9887C228.199 59.0611 228.962 55.6142 230.486 52.6478C232.011 49.6814 234.157 47.3696 236.924 45.7124C239.708 44.0552 242.973 43.2266 246.718 43.2266C249.237 43.2266 251.582 43.6326 253.753 44.4447C255.941 45.2401 257.846 46.4416 259.471 48.0491C261.111 49.6565 262.387 51.6783 263.299 54.1144C264.21 56.5339 264.666 59.3677 264.666 62.6158V65.5242H232.425V58.9617H254.698C254.698 57.4371 254.366 56.0865 253.704 54.9099C253.041 53.7332 252.121 52.8135 250.944 52.1506C249.784 51.4712 248.434 51.1314 246.892 51.1314C245.285 51.1314 243.86 51.5043 242.617 52.2501C241.391 52.9792 240.429 53.9653 239.733 55.2081C239.037 56.4345 238.681 57.8017 238.664 59.3097V65.5491C238.664 67.4383 239.012 69.0706 239.708 70.4461C240.421 71.8215 241.424 72.8822 242.716 73.6279C244.009 74.3736 245.542 74.7465 247.315 74.7465C248.492 74.7465 249.569 74.5808 250.547 74.2493C251.524 73.9179 252.361 73.4207 253.057 72.7579C253.753 72.095 254.284 71.283 254.648 70.3218L264.442 70.9681C263.945 73.3213 262.926 75.3762 261.385 77.1329C259.86 78.8729 257.888 80.2318 255.468 81.2096C253.065 82.1707 250.29 82.6513 247.141 82.6513Z" fill="black"/>
<path d="M279.716 30.9965V81.9056H269.126V30.9965H279.716Z" fill="black"/>
</svg>
