<svg width="879" height="91" viewBox="0 0 879 91" fill="none" xmlns="http://www.w3.org/2000/svg">
<path d="M36.48 62.29C37.62 61.87 40.44 62.38 44.94 63.82C49.5 65.2 53.13 66.67 55.83 68.23C58.23 69.73 59.64 70.48 60.06 70.48C60.54 70.48 61.35 71.17 62.49 72.55L66.09 76.51C67.17 77.89 67.71 78.76 67.71 79.12C67.71 79.6 67.05 80.11 65.73 80.65C64.47 81.13 63.27 81.37 62.13 81.37C61.23 81.49 60.45 81.37 59.79 81.01C59.19 80.65 58.35 79.9 57.27 78.76C55.47 76.96 54.36 76.06 53.94 76.06C53.52 76.06 52.35 75.19 50.43 73.45C45.81 69.31 42.06 66.37 39.18 64.63C37.26 63.49 36.36 62.71 36.48 62.29ZM13.08 31.33C15.6 28.57 16.38 29.38 15.42 33.76C14.58 37.3 13.02 38.77 10.74 38.17C9.78 37.93 9.09 37.3 8.67 36.28C8.19 35.32 7.98 34.75 8.04 34.57C8.16 34.33 8.67 34.12 9.57 33.94C10.59 33.64 11.76 32.77 13.08 31.33ZM30.72 25.84C34.68 24.58 37.98 24.61 40.62 25.93C42.18 26.77 42.96 27.7 42.96 28.72C42.96 29.68 42.21 30.97 40.71 32.59C39.09 34.21 38.04 35.5 37.56 36.46C37.08 37.36 36.03 38.35 34.41 39.43C31.71 41.11 30.96 42.58 32.16 43.84C32.58 44.32 33.03 44.56 33.51 44.56C33.99 44.5 35.07 44.23 36.75 43.75C40.29 42.61 43.68 42.49 46.92 43.39C49.68 44.17 50.46 45.16 49.26 46.36C48.54 47.02 47.1 47.62 44.94 48.16C42.18 48.94 39.84 49.78 37.92 50.68C36 51.52 34.92 52.24 34.68 52.84C34.26 54.1 33.96 58.54 33.78 66.16C33.6 71.62 34.08 75.76 35.22 78.58C35.64 79.84 35.61 81.13 35.13 82.45C34.65 83.83 33.87 84.67 32.79 84.97C31.17 85.33 27.48 82.87 21.72 77.59L18.84 74.8L16.68 76.06L10.38 79.66C8.22 80.98 6.51 81.76 5.25 82C4.05 82.24 3 82 2.1 81.28C1.26 80.68 1.05 80.02 1.47 79.3C1.89 78.58 2.76 78.07 4.08 77.77C6.78 77.23 9.66 75.19 12.72 71.65C13.92 70.21 14.91 68.83 15.69 67.51C16.47 66.13 16.8 65.17 16.68 64.63C16.56 64.27 16.98 63.55 17.94 62.47L18.75 61.48C18.63 61.54 18.42 61.66 18.12 61.84C17.16 62.62 14.91 63.58 11.37 64.72C7.89 65.8 5.82 66.19 5.16 65.89C4.5 65.71 3.99 65.14 3.63 64.18C3.33 63.16 3.33 62.11 3.63 61.03C3.75 60.25 3.96 59.71 4.26 59.41C4.62 59.11 5.1 58.93 5.7 58.87C7.14 58.69 10.35 55.96 15.33 50.68C20.37 45.34 22.71 42.19 22.35 41.23C22.11 40.63 22.56 40.09 23.7 39.61C24.54 39.31 25.8 38.32 27.48 36.64C29.22 34.96 30.09 33.88 30.09 33.4C30.09 33.1 29.22 32.83 27.48 32.59C25.74 32.29 23.82 31.51 21.72 30.25L18.75 28.36L23.34 27.55C26.4 27.01 28.86 26.44 30.72 25.84ZM25.95 47.89C26.07 47.17 25.92 46.75 25.5 46.63C25.2 46.57 24.66 46.84 23.88 47.44C23.1 47.98 21.42 49.33 18.84 51.49C17.28 52.81 15.87 53.83 14.61 54.55C13.41 55.27 12.81 55.87 12.81 56.35C12.81 56.71 13.23 56.71 14.07 56.35C14.73 55.99 16.65 54.88 19.83 53.02C23.07 51.1 24.87 50.14 25.23 50.14C25.53 50.14 25.71 50.02 25.77 49.78C25.83 49.54 25.89 48.91 25.95 47.89ZM21.9 62.47C22.26 62.47 22.68 62.05 23.16 61.21C23.64 60.37 23.82 59.95 23.7 59.95C23.58 59.95 23.16 60.37 22.44 61.21C21.72 62.05 21.54 62.47 21.9 62.47ZM26.4 71.38C26.4 70.9 26.25 70.6 25.95 70.48C25.65 70.36 25.32 70.48 24.96 70.84C24.6 71.26 24.48 71.62 24.6 71.92C24.72 72.16 25.02 72.28 25.5 72.28C25.74 72.28 25.95 72.22 26.13 72.1C26.31 71.92 26.4 71.68 26.4 71.38ZM31.35 8.92C31.35 6.7 32.37 7 34.41 9.82C34.89 10.48 35.43 11.26 36.03 12.16C37.29 14.26 37.8 15.64 37.56 16.3C37.38 16.9 36.18 17.74 33.96 18.82C32.16 19.72 29.58 20.14 26.22 20.08C22.92 19.96 21.06 19.72 20.64 19.36C20.22 18.94 20.34 18.73 21 18.73C21.66 18.73 22.05 18.58 22.17 18.28C22.35 17.92 23.91 16.54 26.85 14.14C29.85 11.68 31.35 9.94 31.35 8.92ZM109.235 20.53C111.395 19.45 112.955 18.73 113.915 18.37C114.875 18.01 115.805 17.92 116.705 18.1C117.725 18.28 118.595 18.67 119.315 19.27C120.035 19.87 120.395 20.47 120.395 21.07C120.395 21.49 119.495 22.54 117.695 24.22C115.895 25.9 113.915 28.03 111.755 30.61C109.595 33.13 108.575 34.51 108.695 34.75C109.595 35.59 112.475 35.32 117.335 33.94C126.575 31.18 132.125 29.95 133.985 30.25C137.345 30.91 139.745 31.72 141.185 32.68C142.625 33.64 143.735 35.14 144.515 37.18C144.995 38.5 145.235 39.52 145.235 40.24C145.295 40.96 145.205 41.98 144.965 43.3C144.485 45.4 144.095 48.88 143.795 53.74C143.255 61.84 142.325 67.42 141.005 70.48C140.405 71.92 139.265 75.01 137.585 79.75C135.905 84.43 135.065 86.95 135.065 87.31C135.065 87.97 134.345 88.63 132.905 89.29C131.525 90.01 130.175 90.37 128.855 90.37C126.995 90.37 125.705 90.16 124.985 89.74C124.265 89.38 123.365 88.48 122.285 87.04C121.025 85.3 119.435 83.98 117.515 83.08C115.535 82.18 113.825 81.88 112.385 82.18C110.945 82.48 108.815 83.65 105.995 85.69C105.515 85.99 105.035 85.99 104.555 85.69C104.135 85.45 103.325 84.64 102.125 83.26C100.265 81.04 98.9752 79.96 98.2552 80.02C97.7152 80.02 96.9052 80.53 95.8252 81.55C94.7452 82.57 93.7852 83.77 92.9452 85.15C92.3452 86.05 91.5652 86.59 90.6052 86.77C89.7052 86.95 88.9852 86.68 88.4452 85.96C88.0252 85.48 87.5752 84.37 87.0952 82.63C86.7352 81.61 86.5552 80.77 86.5552 80.11C86.6152 79.45 86.8852 78.55 87.3652 77.41C88.6852 73.93 90.8752 72.7 93.9352 73.72C96.3952 74.62 98.6752 74.53 100.775 73.45C101.435 73.09 101.885 72.73 102.125 72.37C102.365 71.95 102.485 71.32 102.485 70.48C102.485 69.1 102.305 68.29 101.945 68.05C101.585 67.75 100.265 67.9 97.9852 68.5C95.8852 69.04 94.5352 69.16 93.9352 68.86C93.3952 68.56 93.2452 67.63 93.4852 66.07C93.8452 64.51 95.2252 62.44 97.6252 59.86C100.745 56.5 101.855 54.82 100.955 54.82C100.595 54.82 99.9952 55 99.1552 55.36C98.1352 55.78 97.0252 55.78 95.8252 55.36C94.6852 54.88 93.8452 54.13 93.3052 53.11L92.3152 51.67L90.5152 53.11C89.7352 53.83 88.9852 54.31 88.2652 54.55C87.5452 54.79 86.9452 54.82 86.4652 54.64C86.0452 54.4 85.8352 53.98 85.8352 53.38C85.8352 52.42 87.5152 50.17 90.8752 46.63C93.7552 43.75 97.0252 40.12 100.685 35.74C104.405 31.3 106.265 28.81 106.265 28.27C106.265 27.91 105.575 28.12 104.195 28.9C102.815 29.68 100.835 30.49 98.2552 31.33C93.6952 32.83 91.4152 32.23 91.4152 29.53C91.4152 28.51 91.5652 27.79 91.8652 27.37C92.1652 26.89 92.8552 26.44 93.9352 26.02C96.6952 24.76 98.4352 24.01 99.1552 23.77C99.9352 23.53 100.385 23.56 100.505 23.86C100.565 24.04 100.745 24.13 101.045 24.13C101.405 24.13 101.915 24.01 102.575 23.77C103.295 23.47 104.165 23.08 105.185 22.6C106.265 22.06 107.615 21.37 109.235 20.53ZM136.685 36.01L133.895 35.83C130.835 35.71 127.085 36.58 122.645 38.44C117.905 40.48 114.065 40.42 111.125 38.26C109.925 37.36 108.905 36.91 108.065 36.91C107.405 36.91 106.715 37.21 105.995 37.81C105.335 38.35 105.005 38.92 105.005 39.52C105.005 39.94 105.725 40.57 107.165 41.41C108.605 42.19 110.405 43.03 112.565 43.93C114.185 44.53 115.055 45.22 115.175 46C115.295 46.72 114.695 47.92 113.375 49.6C111.035 52.6 110.135 54.82 110.675 56.26C110.975 56.8 112.295 57.46 114.635 58.24C120.215 60.04 119.735 61.72 113.195 63.28C112.055 63.58 111.275 63.91 110.855 64.27C110.435 64.57 110.105 65.17 109.865 66.07C109.145 68.35 109.445 69.49 110.765 69.49C111.425 69.49 113.465 70.24 116.885 71.74C120.365 73.24 122.345 74.23 122.825 74.71C123.905 75.79 122.825 77.17 119.585 78.85C117.365 79.99 116.945 80.71 118.325 81.01C118.385 81.01 118.445 81.01 118.505 81.01C118.925 81.07 119.255 81.13 119.495 81.19C119.735 81.43 120.905 81.73 123.005 82.09C124.385 82.39 125.465 82.27 126.245 81.73C127.025 81.19 127.805 80.05 128.585 78.31C131.225 71.83 132.905 66.64 133.625 62.74C134.285 59.26 135.005 55.57 135.785 51.67C136.625 47.71 136.985 44.11 136.865 40.87L136.685 36.01ZM103.115 41.86C102.755 41.92 101.225 43.42 98.5252 46.36C95.8852 49.24 94.6252 50.74 94.7452 50.86C94.9252 51.1 96.4852 50.35 99.4252 48.61C102.425 46.87 104.105 45.76 104.465 45.28C104.765 44.86 104.675 44.17 104.195 43.21C103.775 42.25 103.415 41.8 103.115 41.86ZM113.195 72.28C112.235 71.38 111.365 70.9 110.585 70.84C109.805 70.72 109.295 71.02 109.055 71.74C108.875 72.28 108.725 73.78 108.605 76.24C108.545 78.7 108.545 80.56 108.605 81.82C108.665 82.78 109.745 82.06 111.845 79.66C113.825 77.26 114.815 75.52 114.815 74.44C114.815 74.02 114.275 73.3 113.195 72.28ZM108.065 3.24999C112.025 1.45 115.625 1.42 118.865 3.16C120.845 4.24 121.685 5.47 121.385 6.85C121.145 8.17 119.675 9.88 116.975 11.98C115.355 13.18 113.675 14.65 111.935 16.39C110.255 18.13 108.905 19 107.885 19C106.925 19 105.995 19.3 105.095 19.9C103.835 20.8 103.475 20.89 104.015 20.17C104.495 19.45 105.635 18.16 107.435 16.3C109.295 14.38 110.975 12.31 112.475 10.09C114.035 7.87 114.815 6.34 114.815 5.5C114.815 5.14 114.155 4.92999 112.835 4.87C111.515 4.81 110.105 4.99 108.605 5.41C107.225 5.83 105.575 7 103.655 8.92C102.335 10.18 101.525 11.11 101.225 11.71C100.985 12.25 100.955 12.94 101.135 13.78C101.375 15.16 101.135 16 100.415 16.3C99.5152 16.66 98.5852 16.24 97.6252 15.04C96.6652 13.84 95.9452 12.19 95.4652 10.09C95.2852 9.25 95.2552 8.77 95.3752 8.64999C95.4952 8.53 96.0352 8.56 96.9952 8.74C97.7752 8.86 98.4652 8.83 99.0652 8.64999C99.7252 8.47 100.655 7.93 101.855 7.02999C103.775 5.53 105.845 4.27 108.065 3.24999ZM213.94 57.07C215.74 57.07 217.84 58.15 220.24 60.31C222.64 62.47 223.84 64.36 223.84 65.98C223.78 67.3 223.54 68.2 223.12 68.68C222.7 69.16 221.71 69.61 220.15 70.03C218.29 70.51 216.82 70.96 215.74 71.38C214.72 71.74 213.49 72.04 212.05 72.28L209.89 72.64L211.96 70.57C213.16 69.31 214.09 67.9 214.75 66.34C215.47 64.78 215.68 63.64 215.38 62.92C215.08 62.14 214.54 61.21 213.76 60.13C213.04 59.05 212.68 58.27 212.68 57.79C212.68 57.31 213.1 57.07 213.94 57.07ZM193.06 12.79C193.06 11.89 194.08 12.01 196.12 13.15C197.2 13.69 198.16 14.53 199 15.67C199.9 16.75 200.47 17.86 200.71 19C201.19 21.16 203.17 21.34 206.65 19.54C209.35 18.1 212.56 18.28 216.28 20.08C217.12 20.38 217.66 20.71 217.9 21.07C218.14 21.43 218.23 21.94 218.17 22.6C218.11 23.26 217.93 23.71 217.63 23.95C217.39 24.19 216.88 24.34 216.1 24.4C213.88 24.58 210.94 25.03 207.28 25.75C203.68 26.41 201.43 26.92 200.53 27.28C199.27 27.82 197.89 29.23 196.39 31.51C194.95 33.73 194.23 35.26 194.23 36.1C194.23 36.94 194.92 37.48 196.3 37.72C197.74 37.96 199 38.38 200.08 38.98C201.16 39.52 202.36 39.58 203.68 39.16C205.12 38.74 206.74 38.59 208.54 38.71C210.4 38.77 211.63 39.04 212.23 39.52C212.89 40 213.19 40.72 213.13 41.68C213.13 42.64 212.77 43.3 212.05 43.66C211.45 43.9 210.28 44.38 208.54 45.1C206.86 45.76 205.87 46.54 205.57 47.44C205.33 48.34 205.03 53.62 204.67 63.28C204.49 71.8 204.16 76.84 203.68 78.4C203.26 79.9 202.09 80.53 200.17 80.29C198.43 79.99 197.2 79.48 196.48 78.76C195.82 78.04 195.49 76.96 195.49 75.52V73.18H192.25C190.81 73.18 189.82 73.33 189.28 73.63C188.74 73.87 187.87 74.65 186.67 75.97C184.81 78.01 183.4 78.91 182.44 78.67C181.54 78.43 180.4 76.87 179.02 73.99C177.94 71.71 177.34 70.24 177.22 69.58C177.1 68.92 177.25 67.99 177.67 66.79C178.27 65.17 178.93 64.15 179.65 63.73C180.37 63.31 181.39 63.34 182.71 63.82C183.97 64.36 185.05 64.63 185.95 64.63C186.79 64.57 188.71 63.82 191.71 62.38C194.77 60.94 196.48 59.95 196.84 59.41C197.14 58.99 197.29 57.52 197.29 55C197.35 52.48 197.26 51.1 197.02 50.86C196.78 50.62 195.07 51.22 191.89 52.66C188.77 54.1 186.46 54.91 184.96 55.09C183.94 55.27 183.25 55.3 182.89 55.18C182.59 55 182.38 54.58 182.26 53.92C181.9 52.54 181.9 51.1 182.26 49.6C182.62 48.1 183.28 46.84 184.24 45.82C186.64 43.24 188.38 39.34 189.46 34.12C189.76 33.04 189.58 32.5 188.92 32.5C188.26 32.56 187.12 33.1 185.5 34.12C184.3 34.9 183.31 35.35 182.53 35.47C181.75 35.59 180.22 35.59 177.94 35.47C172.96 35.11 170.11 34.45 169.39 33.49C169.27 33.37 169.27 33.22 169.39 33.04C169.75 32.8 171.64 32.23 175.06 31.33C178.48 30.43 182.44 29.05 186.94 27.19C189.76 25.93 191.56 25.06 192.34 24.58C193.18 24.04 193.72 23.41 193.96 22.69C194.56 19.69 194.44 17.14 193.6 15.04C193.24 13.9 193.06 13.15 193.06 12.79ZM194.86 41.5C193.84 40.24 193.12 40.33 192.7 41.77C192.4 42.67 192.43 43.27 192.79 43.57C193.21 43.87 193.78 43.75 194.5 43.21C194.98 42.85 195.25 42.58 195.31 42.4C195.37 42.22 195.22 41.92 194.86 41.5ZM257.535 15.04C258.015 13.84 258.375 13.18 258.615 13.06C258.855 12.94 259.425 13.12 260.325 13.6C261.945 14.44 261.855 16.72 260.055 20.44C259.095 22.36 258.585 23.65 258.525 24.31C258.465 24.97 258.855 25.33 259.695 25.39C260.595 25.45 261.915 25.69 263.655 26.11C264.915 26.47 265.875 26.92 266.535 27.46C266.955 27.88 267.465 27.88 268.065 27.46C268.665 27.04 269.895 25.84 271.755 23.86C274.575 20.86 276.615 18.61 277.875 17.11C279.195 15.61 280.005 14.86 280.305 14.86C280.665 14.86 280.425 15.31 279.585 16.21C278.745 17.05 277.755 18.61 276.615 20.89C273.555 26.77 272.025 29.89 272.025 30.25C272.025 30.49 272.595 30.88 273.735 31.42C274.935 31.9 276.075 32.74 277.155 33.94C278.295 35.08 279.285 35.53 280.125 35.29C280.965 35.05 282.075 35.11 283.455 35.47C284.895 35.77 285.615 36.13 285.615 36.55C285.615 37.09 284.145 38.74 281.205 41.5C278.265 44.2 276.885 45.82 277.065 46.36C277.245 46.84 278.595 47.41 281.115 48.07C283.695 48.73 285.315 49.42 285.975 50.14C286.815 50.92 286.845 51.88 286.065 53.02C285.285 54.1 283.785 55.18 281.565 56.26L277.965 58.06L279.855 59.95L281.745 61.84L287.595 60.76C294.075 59.44 298.545 59.02 301.005 59.5C303.465 59.98 305.055 61.57 305.775 64.27C306.315 66.31 306.525 67.96 306.405 69.22C306.285 70.48 305.655 72.79 304.515 76.15C302.955 81.01 301.215 84.28 299.295 85.96C297.375 87.7 295.425 87.82 293.445 86.32C291.465 84.88 289.215 83.92 286.695 83.44C285.315 83.14 284.265 82.69 283.545 82.09C282.885 81.49 282.165 81.43 281.385 81.91C280.905 82.09 280.365 82.24 279.765 82.36C279.165 82.54 278.625 82.6 278.145 82.54C277.725 82.54 277.515 82.42 277.515 82.18C277.515 81.94 277.875 81.4 278.595 80.56C279.135 80.02 279.345 79.72 279.225 79.66C279.105 79.54 278.535 79.51 277.515 79.57C276.555 79.69 275.925 79.66 275.625 79.48C275.325 79.24 274.995 78.52 274.635 77.32C274.095 75.76 274.065 74.29 274.545 72.91C275.025 71.53 275.145 70.72 274.905 70.48C274.725 70.3 271.665 71.41 265.725 73.81C264.105 74.41 263.295 74.92 263.295 75.34C263.415 76.48 263.715 77.77 264.195 79.21C264.735 80.65 265.275 81.64 265.815 82.18C267.195 83.68 267.345 84.58 266.265 84.88C264.825 85.24 263.085 84.55 261.045 82.81C260.025 81.91 259.305 81.13 258.885 80.47C258.525 79.81 258.255 78.97 258.075 77.95C257.775 76.15 257.355 75.01 256.815 74.53C256.275 74.05 256.005 73.6 256.005 73.18C256.065 72.76 256.425 72.22 257.085 71.56C257.865 70.78 258.915 70.51 260.235 70.75C261.615 70.93 262.725 70.81 263.565 70.39C264.465 69.97 266.655 69.01 270.135 67.51C273.975 65.83 276.195 64.72 276.795 64.18C277.395 63.58 277.425 62.47 276.885 60.85C276.345 59.05 276.105 57.82 276.165 57.16C276.225 56.74 276.135 56.5 275.895 56.44C275.715 56.32 275.295 56.32 274.635 56.44C273.495 56.68 272.085 57.19 270.405 57.97C267.645 59.23 266.055 59.29 265.635 58.15C264.855 56.17 265.545 54.04 267.705 51.76C271.005 48.34 272.385 46.39 271.845 45.91C271.605 45.67 270.645 45.97 268.965 46.81C267.345 47.65 266.325 48.07 265.905 48.07C265.545 48.07 264.435 48.46 262.575 49.24C261.195 49.9 260.055 50.23 259.155 50.23C258.315 50.17 257.835 49.81 257.715 49.15C257.595 48.13 257.625 47.44 257.805 47.08C257.985 46.66 258.405 46.36 259.065 46.18C260.205 45.82 262.425 44.77 265.725 43.03C267.465 42.19 268.725 41.5 269.505 40.96C270.285 40.36 270.615 39.94 270.495 39.7C270.255 39.04 270.525 37.99 271.305 36.55C271.905 35.29 272.175 34.3 272.115 33.58C272.055 32.8 271.665 32.5 270.945 32.68C270.285 32.8 269.565 33.4 268.785 34.48C267.885 35.74 267.105 36.37 266.445 36.37C265.725 36.37 264.915 35.95 264.015 35.11C263.175 34.21 262.635 33.28 262.395 32.32C262.155 31.3 261.885 30.79 261.585 30.79C260.745 30.79 259.365 31.18 257.445 31.96C255.585 32.74 254.235 33.49 253.395 34.21L251.415 35.83L250.335 34.48C249.555 33.58 249.165 32.77 249.165 32.05C249.165 31.33 249.045 30.67 248.805 30.07C248.625 29.47 249.045 28.63 250.065 27.55C250.905 26.59 252.195 24.67 253.935 21.79C255.675 18.91 256.875 16.66 257.535 15.04ZM276.885 49.24C276.885 47.98 276.435 47.71 275.535 48.43C275.355 48.67 275.115 49 274.815 49.42C274.275 50.2 274.035 50.71 274.095 50.95C274.215 51.13 274.695 51.1 275.535 50.86C276.435 50.56 276.885 50.02 276.885 49.24ZM297.585 64.36L293.535 64.27C290.835 64.15 289.185 64.24 288.585 64.54C286.605 65.2 285.165 65.86 284.265 66.52C283.365 67.18 282.495 68.23 281.655 69.67C280.575 71.65 280.035 72.7 280.035 72.82C280.035 72.94 280.755 73.03 282.195 73.09C284.715 73.21 286.425 73.9 287.325 75.16C288.225 76.42 287.895 77.65 286.335 78.85C285.495 79.51 285.045 79.96 284.985 80.2C284.985 80.38 285.255 80.68 285.795 81.1C286.515 81.58 287.685 81.85 289.305 81.91C290.925 81.97 292.125 81.76 292.905 81.28C293.685 80.92 294.615 79.75 295.695 77.77C296.475 76.51 296.955 75.43 297.135 74.53C297.375 73.57 297.495 71.92 297.495 69.58L297.585 64.36ZM287.235 5.31999C287.595 4.96 288.915 4.96 291.195 5.31999C294.975 5.98 295.755 9.34 293.535 15.4C293.115 17.8 293.055 19.03 293.355 19.09C294.135 19.09 295.575 19.45 297.675 20.17C299.775 20.89 301.065 21.46 301.545 21.88C301.905 22.18 302.025 22.48 301.905 22.78C301.845 23.08 301.485 23.53 300.825 24.13C299.805 25.09 298.515 26.05 296.955 27.01C295.395 27.91 294.285 28.36 293.625 28.36C292.965 28.36 291.735 28.96 289.935 30.16C287.055 32.08 285.615 32.62 285.615 31.78C285.615 31.3 286.215 30.43 287.415 29.17C288.915 27.73 289.455 26.8 289.035 26.38C288.795 26.08 288.105 26.41 286.965 27.37C286.125 28.09 285.555 28.48 285.255 28.54C284.955 28.54 284.535 28.36 283.995 28C283.215 27.16 282.915 25.99 283.095 24.49C283.335 22.99 284.025 21.52 285.165 20.08C287.985 16.48 289.425 13 289.485 9.64C289.485 8.56 289.425 7.87 289.305 7.57C289.185 7.21 288.795 7.06 288.135 7.12C287.475 7.12 287.025 6.94 286.785 6.57999C286.605 6.16 286.755 5.74 287.235 5.31999ZM365.841 32.32C366.561 31.9 367.221 31.75 367.821 31.87C368.481 31.99 369.891 32.53 372.051 33.49C374.331 34.63 375.921 35.74 376.821 36.82C377.721 37.84 378.111 39.19 377.991 40.87C377.811 42.37 377.211 43.36 376.191 43.84C375.291 44.32 374.421 44.35 373.581 43.93C372.801 43.45 371.871 42.46 370.791 40.96C369.831 39.58 368.601 38.44 367.101 37.54C366.201 37.06 365.601 36.61 365.301 36.19C365.061 35.77 364.971 35.23 365.031 34.57C365.091 33.37 365.361 32.62 365.841 32.32ZM385.281 19.27C387.321 19.45 388.821 19.99 389.781 20.89C390.801 21.73 391.011 22.63 390.411 23.59C389.991 24.13 389.421 24.46 388.701 24.58C388.041 24.7 386.361 24.67 383.661 24.49C381.021 24.37 378.951 24.43 377.451 24.67C376.011 24.85 373.551 25.36 370.071 26.2C364.971 27.52 361.731 28.57 360.351 29.35L358.281 30.7L359.991 32.32C360.711 32.98 361.131 33.58 361.251 34.12C361.431 34.6 361.401 35.65 361.161 37.27C360.921 39.55 360.771 45.73 360.711 55.81C360.591 60.37 360.501 63.76 360.441 65.98C360.381 68.14 360.201 69.94 359.901 71.38C359.661 72.76 359.331 73.6 358.911 73.9C358.551 74.14 358.011 74.2 357.291 74.08C355.551 73.96 354.351 72.28 353.691 69.04C353.091 65.8 353.211 61.99 354.051 57.61C354.351 56.17 354.351 51.91 354.051 44.83C353.751 37.69 353.451 33.97 353.151 33.67C352.971 33.49 351.381 34.09 348.381 35.47C345.381 36.79 342.531 37.48 339.831 37.54C335.331 37.6 331.431 36.91 328.131 35.47C326.571 34.81 326.091 34.21 326.691 33.67C327.051 33.37 329.001 32.83 332.541 32.05C336.321 31.21 342.741 29.5 351.801 26.92C360.861 24.34 366.231 22.69 367.911 21.97C368.751 21.55 370.401 21.01 372.861 20.35C375.321 19.69 376.941 19.18 377.721 18.82C378.561 18.4 379.491 18.31 380.511 18.55C381.591 18.73 383.181 18.97 385.281 19.27ZM436.886 60.76C436.886 60.4 437.036 60.22 437.336 60.22C439.376 60.22 441.086 61.45 442.466 63.91C443.846 66.31 444.536 68.23 444.536 69.67C444.536 71.05 444.386 72.37 444.086 73.63C443.846 74.89 442.916 77.5 441.296 81.46C439.736 85.36 438.506 87.31 437.606 87.31C436.766 87.31 436.106 86.29 435.626 84.25C435.146 82.27 434.906 80.29 434.906 78.31C434.906 76.27 435.086 74.29 435.446 72.37C435.866 70.39 436.196 68.8 436.436 67.6C436.976 65.44 437.246 63.97 437.246 63.19L436.886 60.76ZM535.471 65.08C536.851 65.5 538.561 65.5 540.601 65.08C542.041 64.84 544.051 65.59 546.631 67.33C549.271 69.01 550.591 70.48 550.591 71.74C550.591 72.76 550.231 73.42 549.511 73.72C548.851 74.02 547.411 74.11 545.191 73.99C542.551 73.93 540.871 74.08 540.151 74.44C539.011 75.04 538.471 75.01 538.531 74.35C538.591 73.99 538.891 73.42 539.431 72.64C540.211 71.5 540.601 70.75 540.601 70.39C540.601 69.97 539.671 69.31 537.811 68.41C536.491 67.81 535.591 67.51 535.111 67.51C534.691 67.45 534.121 67.63 533.401 68.05C529.141 70.51 525.121 74.41 521.341 79.75C520.381 81.01 519.391 81.49 518.371 81.19C517.351 80.83 516.361 79.69 515.401 77.77C514.261 75.55 513.601 74.35 513.421 74.17C513.181 73.93 511.951 74.14 509.731 74.8C507.511 75.46 505.591 76.21 503.971 77.05C501.931 78.01 500.611 78.31 500.011 77.95C499.411 77.59 499.141 76.42 499.201 74.44C499.381 72.22 500.011 70.57 501.091 69.49C503.251 67.21 504.811 66.73 505.771 68.05C506.011 68.35 506.371 68.53 506.851 68.59C507.331 68.65 508.231 68.56 509.551 68.32C511.351 67.9 512.881 67.81 514.141 68.05C515.401 68.29 516.751 68.89 518.191 69.85C519.211 70.57 519.961 70.96 520.441 71.02C520.921 71.08 521.851 70.9 523.231 70.48C525.151 69.88 527.461 68.8 530.161 67.24C532.861 65.62 534.631 64.9 535.471 65.08ZM505.861 12.52C505.621 11.68 505.651 11.23 505.951 11.17C506.311 11.05 507.181 11.23 508.561 11.71C510.301 12.31 511.141 13.57 511.081 15.49C511.021 17.41 510.151 20.14 508.471 23.68C507.091 26.56 505.561 29.23 503.881 31.69C502.201 34.15 501.301 35.74 501.181 36.46C501.061 37.12 501.421 37.99 502.261 39.07C502.981 39.97 503.431 40.45 503.611 40.51C503.851 40.57 504.151 40.3 504.511 39.7C505.111 38.56 506.161 36.31 507.661 32.95C509.161 29.53 509.911 27.64 509.911 27.28C509.911 26.68 510.331 26.38 511.171 26.38C511.831 26.38 512.971 26.8 514.591 27.64C516.271 28.42 517.261 29.05 517.561 29.53C517.801 29.95 518.071 30.16 518.371 30.16C518.671 30.16 519.151 29.41 519.811 27.91C520.471 26.41 520.921 25.06 521.161 23.86C521.401 22.96 521.641 22.39 521.881 22.15C522.001 22.09 522.121 22.24 522.241 22.6C522.361 23.08 522.361 23.8 522.241 24.76C521.941 26.5 521.221 29.59 520.081 34.03C518.941 38.47 518.491 40.81 518.731 41.05C519.331 41.65 520.381 40.78 521.881 38.44C523.381 36.04 524.851 32.95 526.291 29.17C527.791 25.33 528.781 21.94 529.261 19C529.381 18.1 529.381 17.38 529.261 16.84C529.141 16.24 528.751 15.58 528.091 14.86C527.131 13.72 526.651 13 526.651 12.7C526.651 12.4 527.131 12.25 528.091 12.25C529.051 12.25 530.101 12.58 531.241 13.24C532.441 13.84 533.191 14.44 533.491 15.04C534.031 16.42 533.911 19.06 533.131 22.96C532.411 26.8 531.481 29.47 530.341 30.97C529.801 31.81 529.531 32.68 529.531 33.58C529.531 34.96 530.341 35.11 531.961 34.03C532.501 33.73 533.071 33.25 533.671 32.59C534.511 31.81 535.171 31.36 535.651 31.24C536.191 31.06 537.301 31.03 538.981 31.15C540.721 31.33 541.741 31.51 542.041 31.69C542.341 31.87 542.491 32.38 542.491 33.22C542.491 34 542.281 34.63 541.861 35.11C541.501 35.59 540.781 36.25 539.701 37.09L536.011 39.7C535.651 39.94 535.471 40.3 535.471 40.78C535.531 41.26 535.801 42.16 536.281 43.48C537.481 46.96 538.621 48.7 539.701 48.7C540.241 48.7 540.631 49.06 540.871 49.78C541.111 50.44 541.141 51.13 540.961 51.85C540.661 52.63 539.701 53.35 538.081 54.01C536.521 54.61 535.321 55.66 534.481 57.16C533.761 58.48 532.291 59.95 530.071 61.57C527.851 63.13 526.021 64.03 524.581 64.27C522.121 64.75 519.811 63.28 517.651 59.86C517.111 58.96 516.601 58.36 516.121 58.06C515.701 57.76 515.041 57.61 514.141 57.61C513.241 57.61 512.581 57.46 512.161 57.16C511.741 56.8 511.231 56.11 510.631 55.09C509.671 53.41 509.281 51.85 509.461 50.41C510.961 40.39 511.711 34.45 511.711 32.59C511.711 30.67 511.201 31.06 510.181 33.76C509.281 36.16 508.351 39.46 507.391 43.66C506.491 47.56 505.531 50.74 504.511 53.2L502.441 58.42C501.661 60.22 500.461 60.31 498.841 58.69C497.041 56.95 496.141 54.88 496.141 52.48C496.141 51.94 496.201 51.46 496.321 51.04C496.621 50.14 496.801 49.24 496.861 48.34C496.921 47.38 496.921 46.57 496.861 45.91C496.801 45.25 496.621 44.92 496.321 44.92C495.961 44.92 495.151 45.28 493.891 46C492.691 46.72 491.941 46.93 491.641 46.63C491.341 46.33 491.071 44.95 490.831 42.49C490.771 40.75 490.771 39.67 490.831 39.25C490.951 38.83 491.401 38.47 492.181 38.17C493.201 37.81 495.241 35.2 498.301 30.34C501.421 25.36 503.551 21.52 504.691 18.82C505.891 16.06 506.281 13.96 505.861 12.52ZM530.701 45.46C530.581 44.38 530.071 43.87 529.171 43.93C528.331 43.99 527.011 44.65 525.211 45.91C523.111 47.35 521.881 48.07 521.521 48.07C521.161 48.07 520.531 47.62 519.631 46.72C519.151 46.24 518.791 45.97 518.551 45.91C518.311 45.79 518.041 45.91 517.741 46.27C517.381 46.81 517.201 47.44 517.201 48.16C517.201 48.82 517.351 49.24 517.651 49.42C518.011 49.6 519.841 49.42 523.141 48.88C526.441 48.28 528.541 47.8 529.441 47.44C530.401 47.02 530.821 46.36 530.701 45.46ZM524.131 53.92C523.891 53.74 522.691 53.5 520.531 53.2C518.611 53.02 517.441 53.14 517.021 53.56C516.661 53.98 517.081 54.7 518.281 55.72C519.241 56.62 519.931 57.1 520.351 57.16C520.831 57.22 521.671 56.92 522.871 56.26C524.551 55.18 524.971 54.4 524.131 53.92ZM523.141 58.51C523.021 58.63 523.021 58.78 523.141 58.96C523.261 59.08 523.471 59.14 523.771 59.14C524.371 59.14 524.551 58.93 524.311 58.51C524.071 58.09 523.861 57.88 523.681 57.88C523.501 57.88 523.321 58.09 523.141 58.51ZM588.876 16.21C588.876 15.61 589.266 15.31 590.046 15.31C590.646 15.31 591.216 15.82 591.756 16.84C592.356 17.8 592.656 18.76 592.656 19.72C592.656 20.5 592.296 21.58 591.576 22.96C590.916 24.28 590.136 25.42 589.236 26.38C588.516 27.22 586.626 29.8 583.566 34.12C580.566 38.38 579.066 40.63 579.066 40.87C579.846 40.75 580.536 40.63 581.136 40.51C581.796 40.33 582.546 40.15 583.386 39.97C587.346 38.95 590.526 39.01 592.926 40.15C593.646 40.51 594.396 41.11 595.176 41.95C595.956 42.79 596.346 43.42 596.346 43.84C596.346 44.14 596.586 44.29 597.066 44.29C597.546 44.29 599.406 43.36 602.646 41.5C605.886 39.58 608.136 38.14 609.396 37.18C610.296 36.46 611.316 34.93 612.456 32.59C613.596 30.25 614.376 28.06 614.796 26.02C615.036 24.76 615.096 23.89 614.976 23.41C614.916 22.93 614.526 22.21 613.806 21.25C612.366 19.33 611.916 18.04 612.456 17.38C612.636 17.26 612.786 17.2 612.906 17.2C613.446 17.2 614.496 17.71 616.056 18.73C617.676 19.69 618.876 20.56 619.656 21.34C620.556 22.3 621.006 23.5 621.006 24.94C621.006 25.84 621.126 26.5 621.366 26.92C621.606 27.28 622.146 27.64 622.986 28C624.366 28.6 625.926 28.96 627.666 29.08C628.986 29.26 630.066 29.65 630.906 30.25C631.746 30.85 632.046 31.51 631.806 32.23C631.746 32.65 630.486 33.49 628.026 34.75C625.626 35.95 622.926 37.15 619.926 38.35C616.926 39.55 615.126 40.51 614.526 41.23C613.866 41.95 612.906 43.6 611.646 46.18C610.446 48.76 609.906 50.14 610.026 50.32C610.266 50.5 611.586 50.65 613.986 50.77C616.386 50.89 617.946 51.07 618.666 51.31C619.386 51.55 620.046 51.79 620.646 52.03C621.306 52.21 621.846 52.78 622.266 53.74C623.286 55.96 621.606 59.17 617.226 63.37C615.186 65.35 614.376 66.37 614.796 66.43C614.916 66.43 615.186 66.4 615.606 66.34C616.506 66.22 617.886 66.37 619.746 66.79C621.606 67.21 623.196 67.75 624.516 68.41C625.356 68.83 625.986 69.58 626.406 70.66C626.886 71.68 626.946 72.52 626.586 73.18C626.286 73.6 625.686 73.9 624.786 74.08C623.886 74.2 622.056 74.29 619.296 74.35C614.856 74.35 612.096 74.47 611.016 74.71C607.596 75.55 605.526 75.91 604.806 75.79C604.146 75.73 603.126 75.97 601.746 76.51C600.066 77.17 598.956 77.26 598.416 76.78C597.876 76.24 597.606 74.92 597.606 72.82C597.606 70.06 597.756 68.32 598.056 67.6C598.356 66.82 599.136 66.43 600.396 66.43C601.836 66.43 603.006 66.25 603.906 65.89C604.686 65.47 606.576 63.79 609.576 60.85C612.636 57.91 614.166 56.26 614.166 55.9C614.166 55.54 612.966 55.36 610.566 55.36C608.766 55.36 607.656 55.3 607.236 55.18C606.816 55 606.366 54.43 605.886 53.47C605.166 52.21 604.956 50.65 605.256 48.79C605.436 47.23 605.346 46.39 604.986 46.27C604.626 46.09 603.606 46.51 601.926 47.53C599.526 48.97 597.396 50.62 595.536 52.48C593.676 54.34 592.536 55.96 592.116 57.34C591.156 60.46 589.536 63.61 587.256 66.79C584.976 69.91 583.176 71.47 581.856 71.47C581.196 71.47 579.426 70.21 576.546 67.69C573.666 65.11 572.226 63.49 572.226 62.83C572.226 61.99 572.796 61.12 573.936 60.22C575.076 59.26 578.436 56.83 584.016 52.93C586.056 51.49 587.286 49.99 587.706 48.43C588.126 46.87 588.456 45.79 588.696 45.19C588.996 44.47 588.396 44.2 586.896 44.38C585.816 44.56 584.346 44.95 582.486 45.55C580.086 46.39 577.896 46.81 575.916 46.81C573.936 46.81 572.736 46.39 572.316 45.55C571.776 44.59 571.566 43.48 571.686 42.22C571.866 40.9 572.316 39.88 573.036 39.16C573.996 38.2 575.286 36.73 576.906 34.75C578.526 32.71 579.726 31.27 580.506 30.43C581.286 29.59 582.876 27.13 585.276 23.05C587.676 18.97 588.876 16.69 588.876 16.21ZM677.111 52.84C677.771 52.84 678.791 53.35 680.171 54.37C681.551 55.39 682.451 56.35 682.871 57.25C684.011 59.53 683.891 62.02 682.511 64.72C681.671 66.22 681.371 67.27 681.611 67.87C682.031 68.89 684.911 69.4 690.251 69.4C695.591 69.34 699.941 68.77 703.301 67.69C705.581 67.03 707.081 66.13 707.801 64.99C708.521 63.79 708.761 61.93 708.521 59.41C708.281 57.07 708.371 55.9 708.791 55.9C709.271 55.9 710.231 56.68 711.671 58.24C713.171 59.8 713.921 60.85 713.921 61.39C713.921 62.11 714.281 63.58 715.001 65.8C715.841 68.14 716.051 69.82 715.631 70.84C715.271 71.86 714.071 72.88 712.031 73.9C709.631 75.1 707.081 75.88 704.381 76.24C701.741 76.54 697.631 76.69 692.051 76.69C687.911 76.63 685.001 76.48 683.321 76.24C681.701 76 680.381 75.55 679.361 74.89C678.401 74.23 677.381 73.09 676.301 71.47C674.321 68.29 674.051 65.02 675.491 61.66C676.091 60.1 676.391 58.24 676.391 56.08C676.451 53.92 676.691 52.84 677.111 52.84ZM682.691 15.31C683.531 14.95 684.761 14.86 686.381 15.04C688.061 15.22 689.141 15.64 689.621 16.3C690.941 17.92 691.481 21.58 691.241 27.28C691.061 32.98 690.221 37.33 688.721 40.33C688.361 41.05 687.911 43.21 687.371 46.81L686.651 52.21H684.761C683.561 52.21 682.361 51.58 681.161 50.32C680.021 49.06 679.001 48.52 678.101 48.7C676.601 48.88 672.581 53.71 666.041 63.19C664.121 65.95 661.331 69.01 657.671 72.37C654.071 75.73 651.731 77.41 650.651 77.41C649.331 77.41 649.361 76.54 650.741 74.8C651.341 73.96 652.181 73.09 653.261 72.19C656.021 69.79 659.381 65.77 663.341 60.13C667.361 54.49 670.931 48.73 674.051 42.85C675.371 40.45 676.151 38.77 676.391 37.81C676.691 36.85 676.781 35.71 676.661 34.39C676.541 33.79 676.481 33.28 676.481 32.86C676.481 32.38 676.481 32.02 676.481 31.78C676.481 31.48 676.541 31.33 676.661 31.33C677.141 31.33 677.831 31.66 678.731 32.32C679.691 32.92 680.321 33.52 680.621 34.12C681.101 35.14 681.521 35.65 681.881 35.65C682.181 35.65 682.571 34.54 683.051 32.32C683.531 30.1 683.891 27.76 684.131 25.3C684.311 23.32 684.341 22.18 684.221 21.88C684.161 21.58 683.771 21.55 683.051 21.79C681.551 22.27 680.291 23.08 679.271 24.22C678.251 25.36 677.231 27.07 676.211 29.35C674.891 32.35 673.751 34.66 672.791 36.28C671.831 37.84 670.721 39.13 669.461 40.15C668.501 40.93 667.931 41.56 667.751 42.04C667.631 42.52 667.661 43.57 667.841 45.19C668.021 47.29 667.811 48.49 667.211 48.79C666.191 49.21 665.321 49.18 664.601 48.7C663.941 48.22 662.951 47.02 661.631 45.1C660.431 43.18 659.711 41.95 659.471 41.41C659.291 40.81 659.351 40.03 659.651 39.07C660.191 37.45 660.461 33.64 660.461 27.64C660.461 21.58 660.221 18.1 659.741 17.2C659.321 16.48 659.171 16.06 659.291 15.94C659.471 15.82 660.131 15.88 661.271 16.12C662.891 16.3 664.151 16.9 665.051 17.92C665.651 18.7 666.251 20.29 666.851 22.69C667.451 25.03 667.751 27.13 667.751 28.99C667.751 30.61 668.201 30.94 669.101 29.98C669.401 29.62 669.911 28.99 670.631 28.09C671.711 26.47 673.781 24.07 676.841 20.89C679.961 17.71 681.911 15.85 682.691 15.31ZM730.966 55C731.626 53.92 732.886 55.15 734.746 58.69C734.986 59.17 735.196 59.65 735.376 60.13C736.876 63.01 738.406 65.47 739.966 67.51C743.206 71.83 743.716 73.93 741.496 73.81C740.656 73.75 739.426 73.33 737.806 72.55C736.366 71.77 735.316 71.08 734.656 70.48C734.056 69.88 733.336 68.68 732.496 66.88C731.176 64.18 730.486 61.66 730.426 59.32C730.366 56.98 730.546 55.54 730.966 55ZM788.566 28.27C790.246 28.45 791.986 28.99 793.786 29.89C795.646 30.73 796.666 31.51 796.846 32.23C797.146 32.95 797.266 34.66 797.206 37.36C797.146 40 796.936 42.13 796.576 43.75C796.156 45.49 795.886 47.41 795.766 49.51C795.466 52.51 794.146 56.98 791.806 62.92C790.786 65.56 790.126 67.69 789.826 69.31C789.346 71.53 788.686 73.45 787.846 75.07C787.066 76.69 786.196 77.77 785.236 78.31C784.336 78.79 783.466 78.73 782.626 78.13C781.786 77.47 781.036 77.14 780.376 77.14C779.716 77.14 779.056 76.51 778.396 75.25C777.796 73.99 776.686 72.82 775.066 71.74C771.466 69.16 771.466 68.41 775.066 69.49C777.046 70.09 778.846 70.33 780.466 70.21C781.486 70.09 782.206 69.88 782.626 69.58C783.046 69.22 783.556 68.41 784.156 67.15C786.556 62.35 788.446 56.68 789.826 50.14C791.206 43.6 791.476 38.89 790.636 36.01C790.456 35.17 789.766 34.66 788.566 34.48C787.426 34.24 785.266 34.3 782.086 34.66C777.046 35.14 774.016 35.53 772.996 35.83C771.976 36.07 771.346 36.64 771.106 37.54C770.926 38.68 769.996 40.27 768.316 42.31C766.756 44.11 766.126 45.13 766.426 45.37C766.546 45.43 766.786 45.49 767.146 45.55C769.126 45.73 770.716 46.15 771.916 46.81C773.176 47.47 773.806 48.16 773.806 48.88C773.806 49.18 772.456 50.8 769.756 53.74C765.976 57.94 764.956 59.68 766.696 58.96C767.296 58.72 768.706 58.96 770.926 59.68C773.206 60.34 774.646 61 775.246 61.66C776.086 62.44 776.326 63.1 775.966 63.64C775.606 64.18 774.616 64.75 772.996 65.35C771.076 65.89 770.116 66.34 770.116 66.7C770.116 67 769.546 67.15 768.406 67.15C766.966 67.15 766.006 67.48 765.526 68.14C765.106 68.8 764.806 70.36 764.626 72.82C764.326 75.52 764.026 77.2 763.726 77.86C763.486 78.52 762.856 78.85 761.836 78.85C760.696 78.85 759.736 78.46 758.956 77.68C758.236 76.84 757.966 75.91 758.146 74.89C758.446 73.69 758.176 73.12 757.336 73.18C756.676 73.18 755.446 73.63 753.646 74.53C751.606 75.61 750.196 76.06 749.416 75.88C748.636 75.64 747.886 74.59 747.166 72.73C746.626 71.41 746.446 70.51 746.626 70.03C746.806 69.49 747.406 69.04 748.426 68.68C749.566 68.38 751.306 67.09 753.646 64.81C755.986 62.47 757.156 60.94 757.156 60.22C757.156 59.68 757.036 59.38 756.796 59.32C756.556 59.2 755.986 59.2 755.086 59.32C752.446 59.8 751.126 58.48 751.126 55.36C751.126 54.34 751.246 53.71 751.486 53.47C751.786 53.17 752.596 52.84 753.916 52.48C755.776 52 757.336 51.1 758.596 49.78C760.156 48.04 761.656 46.18 763.096 44.2C764.536 42.22 765.346 40.81 765.526 39.97L765.976 38.26L762.916 38.62C760.936 38.86 759.106 39.43 757.426 40.33C756.286 40.99 755.596 41.53 755.356 41.95C755.176 42.37 755.086 43.39 755.086 45.01C755.086 48.61 754.426 50.26 753.106 49.96C752.506 49.84 751.786 49.12 750.946 47.8C750.406 46.78 749.926 46.18 749.506 46C749.146 45.82 748.426 45.85 747.346 46.09C745.966 46.27 744.586 46.06 743.206 45.46C741.886 44.8 741.226 44.02 741.226 43.12C741.226 42.34 741.556 41.95 742.216 41.95C742.756 41.95 744.346 41.23 746.986 39.79C749.626 38.35 751.066 37.45 751.306 37.09C751.546 36.67 751.936 36.58 752.476 36.82C753.076 37 755.176 36.55 758.776 35.47C762.376 34.33 764.266 33.37 764.446 32.59C764.686 31.81 765.346 31.57 766.426 31.87C767.566 32.11 769.636 31.81 772.636 30.97C775.696 30.07 778.756 29.35 781.816 28.81C784.876 28.21 787.126 28.03 788.566 28.27ZM750.406 13.87C750.526 13.75 750.976 13.72 751.756 13.78C752.596 13.84 753.556 14.02 754.636 14.32C755.776 14.62 756.586 14.92 757.066 15.22C757.966 15.76 758.776 16.03 759.496 16.03C760.216 15.97 761.386 15.55 763.006 14.77C764.326 14.17 765.256 13.87 765.796 13.87C766.336 13.81 767.206 14.02 768.406 14.5C770.026 15.1 771.316 15.85 772.276 16.75C773.296 17.65 773.806 18.49 773.806 19.27C773.806 19.75 773.536 20.05 772.996 20.17C772.516 20.29 771.256 20.35 769.216 20.35H764.716L763.366 23.14C762.466 24.94 761.206 26.83 759.586 28.81C758.026 30.73 756.526 32.17 755.086 33.13L752.836 34.57L753.196 32.95C753.556 31.75 753.886 30.7 754.186 29.8C754.546 28.84 754.726 28.27 754.726 28.09C754.726 27.37 753.436 27.61 750.856 28.81C750.616 28.87 750.406 28.93 750.226 28.99C748.546 29.83 747.526 30.25 747.166 30.25C746.926 30.25 746.176 28.99 744.916 26.47C743.656 23.89 743.026 22.3 743.026 21.7C743.026 21.22 743.686 20.98 745.006 20.98C746.326 20.98 747.856 20.59 749.596 19.81L752.206 18.64L751.306 16.48C750.706 15.04 750.406 14.17 750.406 13.87ZM837.562 22.6C837.562 22.48 837.592 22.39 837.652 22.33C837.772 22.27 837.982 22.3 838.282 22.42C838.642 22.48 839.062 22.57 839.542 22.69C840.022 22.81 840.742 23.02 841.702 23.32C843.022 23.74 843.952 24.19 844.492 24.67C845.092 25.09 845.632 25.75 846.112 26.65C847.792 29.89 848.632 35.05 848.632 42.13V49.06H850.972C852.652 49.12 854.122 49.48 855.382 50.14C856.642 50.74 857.872 51.19 859.072 51.49C860.332 51.79 861.082 52.15 861.322 52.57C861.562 52.93 861.982 53.11 862.582 53.11C863.602 53.11 864.502 52.39 865.282 50.95C866.062 49.51 866.452 47.92 866.452 46.18C866.512 44.38 866.212 42.7 865.552 41.14C865.252 40.6 865.012 40 864.832 39.34C864.652 38.68 864.562 38.14 864.562 37.72C864.622 37.3 864.802 37.09 865.102 37.09C865.342 37.09 866.722 37.81 869.242 39.25C875.422 42.91 877.312 47.05 874.912 51.67C874.192 52.99 873.832 54.28 873.832 55.54C873.832 56.8 873.232 58.03 872.032 59.23C870.832 60.31 869.782 60.88 868.882 60.94C867.982 61 866.842 60.49 865.462 59.41C864.562 58.75 863.872 58.36 863.392 58.24C862.972 58.12 862.432 58.21 861.772 58.51C860.572 58.93 857.962 59.23 853.942 59.41C851.182 59.47 849.052 59.68 847.552 60.04C846.112 60.34 843.802 61.15 840.622 62.47C826.882 67.87 819.412 70.42 818.212 70.12C817.252 69.82 816.412 68.71 815.692 66.79C814.972 64.87 814.432 63.67 814.072 63.19C813.712 62.71 813.862 61.96 814.522 60.94C815.182 59.86 815.902 59.2 816.682 58.96C817.402 58.66 818.872 56.89 821.092 53.65C823.312 50.41 824.722 47.86 825.322 46C825.922 44.26 826.522 43.24 827.122 42.94C827.722 42.64 828.562 42.94 829.642 43.84C830.722 44.62 831.412 45.91 831.712 47.71C832.012 49.51 831.832 51.22 831.172 52.84C830.512 54.34 830.242 55.18 830.362 55.36C830.542 55.54 831.982 55.06 834.682 53.92C836.962 53.02 838.162 52.3 838.282 51.76C838.402 51.16 837.682 50.02 836.122 48.34C835.162 47.26 834.742 46.6 834.862 46.36C834.982 46.06 835.882 45.79 837.562 45.55C838.282 45.49 838.732 45.22 838.912 44.74C839.092 44.2 839.332 42.79 839.632 40.51C839.992 37.09 840.052 33.79 839.812 30.61C839.572 27.43 839.122 25.39 838.462 24.49C837.862 23.41 837.562 22.78 837.562 22.6Z" fill="#07C160"/>
</svg>
