<svg width="653" height="120" viewBox="0 0 653 120" fill="none" xmlns="http://www.w3.org/2000/svg">
<path d="M12.307 73.856C10.259 73.856 8.89363 73.0453 8.21096 71.424C7.61363 69.7173 7.31496 68.3093 7.31496 67.2C7.31496 65.0667 8.0403 62.5493 9.49096 59.648C10.9416 56.7467 12.819 53.888 15.123 51.072C17.427 48.256 19.9016 45.9093 22.547 44.032C25.1923 42.1547 27.7096 41.216 30.099 41.216C31.2936 41.216 31.891 41.6427 31.891 42.496C31.891 42.8373 31.763 43.1787 31.507 43.52C31.251 43.776 30.9096 43.8613 30.483 43.776C28.6056 43.6053 26.4723 44.3733 24.083 46.08C21.779 47.7013 19.5176 49.8347 17.299 52.48C15.1656 55.04 13.3736 57.6427 11.923 60.288C10.5576 62.9333 9.87496 65.2373 9.87496 67.2C9.87496 68.3947 10.0883 69.376 10.515 70.144C10.9416 70.912 11.539 71.296 12.307 71.296C13.7576 71.296 15.4216 70.4427 17.299 68.736C19.2616 66.944 21.267 64.7253 23.315 62.08C25.363 59.3493 27.3256 56.5333 29.203 53.632C31.1656 50.6453 32.8723 47.9573 34.323 45.568C35.859 43.0933 37.011 41.2587 37.779 40.064C39.4003 37.6747 41.0216 36.0107 42.643 35.072C44.2643 34.048 45.7576 33.536 47.123 33.536C48.659 33.536 49.8963 34.0053 50.835 34.944C51.859 35.8827 52.371 37.0773 52.371 38.528C52.371 39.808 51.9016 41.1733 50.963 42.624C50.2803 43.648 49.171 45.3547 47.635 47.744C46.099 50.048 44.5203 52.5653 42.899 55.296C41.2776 57.9413 39.9123 60.3733 38.803 62.592C37.6083 65.152 37.011 67.2 37.011 68.736C37.011 70.4427 37.8643 71.296 39.571 71.296C41.107 71.296 42.8136 70.784 44.691 69.76C46.6536 68.736 48.6163 67.4133 50.579 65.792C52.5416 64.1707 54.3763 62.5067 56.083 60.8C57.7896 59.008 59.1976 57.3867 60.307 55.936C60.563 55.5947 60.8616 55.424 61.203 55.424C61.715 55.424 62.099 55.68 62.355 56.192C62.6963 56.6187 62.6963 57.0453 62.355 57.472C61.2456 59.0933 59.7096 60.8427 57.747 62.72C55.8696 64.5973 53.8216 66.3893 51.603 68.096C49.3843 69.8027 47.1656 71.2107 44.947 72.32C42.7283 73.344 40.7656 73.856 39.059 73.856C37.4376 73.856 36.243 73.3867 35.475 72.448C34.7923 71.5093 34.451 70.3147 34.451 68.864C34.451 67.072 34.963 65.024 35.987 62.72C37.0963 60.3307 38.4616 57.728 40.083 54.912C41.7896 52.0107 43.4536 49.3227 45.075 46.848C46.7816 44.288 48.0616 42.368 48.915 41.088C49.5123 40.2347 49.811 39.3813 49.811 38.528C49.811 36.9067 48.9576 36.096 47.251 36.096C46.3123 36.096 45.1603 36.5227 43.795 37.376C42.515 38.2293 41.1923 39.6373 39.827 41.6C37.9496 44.416 35.859 47.6587 33.555 51.328C31.3363 54.9973 29.075 58.4533 26.771 61.696C24.467 64.8533 22.0776 67.6693 19.603 70.144C17.2136 72.6187 14.7816 73.856 12.307 73.856ZM2.57896 58.112C2.1523 58.112 1.81096 57.8987 1.55496 57.472C1.21363 57.0453 1.21363 56.576 1.55496 56.064C3.00563 54.016 4.66963 51.7973 6.54696 49.408C8.50963 46.9333 10.6856 44.6293 13.075 42.496C15.4643 40.2773 18.0243 38.4853 20.755 37.12C23.4856 35.6693 26.3443 34.944 29.331 34.944C30.2696 34.944 31.2083 35.072 32.147 35.328C33.0856 35.4987 33.9816 35.7547 34.835 36.096C35.347 36.352 35.603 36.736 35.603 37.248C35.603 37.5893 35.4323 37.9307 35.091 38.272C34.7496 38.528 34.323 38.5707 33.811 38.4C33.811 38.4 33.683 38.3573 33.427 38.272C33.171 38.1867 32.8296 38.1013 32.403 38.016C31.9763 37.8453 31.507 37.7173 30.995 37.632C30.483 37.5467 29.9283 37.504 29.331 37.504C25.8323 37.504 22.5043 38.5707 19.347 40.704C16.1896 42.8373 13.2456 45.44 10.515 48.512C7.86963 51.584 5.56563 54.5707 3.60296 57.472C3.34696 57.8987 3.00563 58.112 2.57896 58.112ZM34.963 82.048C31.123 82.048 28.3496 81.024 26.643 78.976C25.0216 76.8427 24.211 74.5387 24.211 72.064C24.211 70.016 24.723 68.0533 25.747 66.176C26.003 65.7493 26.387 65.536 26.899 65.536C27.3256 65.536 27.667 65.7493 27.923 66.176C28.2643 66.5173 28.307 66.944 28.051 67.456C27.1976 68.992 26.771 70.528 26.771 72.064C26.771 73.9413 27.411 75.648 28.691 77.184C29.971 78.72 32.0616 79.488 34.963 79.488C38.2056 79.488 41.2776 78.8053 44.179 77.44C47.1656 75.9893 49.9816 74.2827 52.627 72.32C52.7976 72.1493 53.0536 72.064 53.395 72.064C54.2483 72.064 54.675 72.4907 54.675 73.344C54.675 73.7707 54.5043 74.112 54.163 74.368C51.4323 76.416 48.4883 78.208 45.331 79.744C42.1736 81.28 38.7176 82.048 34.963 82.048ZM10.515 81.92C7.69896 81.92 5.18163 80.9813 2.96296 79.104C0.82963 77.2267 -0.151704 74.3253 0.018963 70.4C0.018963 69.632 0.44563 69.248 1.29896 69.248C1.6403 69.248 1.98163 69.376 2.32296 69.632C2.57896 69.8027 2.6643 70.1013 2.57896 70.528C2.49363 73.6 3.26163 75.8613 4.88296 77.312C6.5043 78.6773 8.38163 79.36 10.515 79.36C12.2216 79.36 13.9283 78.976 15.635 78.208C17.3416 77.3547 18.7496 76.16 19.859 74.624C20.115 74.2827 20.4563 74.112 20.883 74.112C21.3096 74.112 21.6936 74.3253 22.035 74.752C22.3763 75.1787 22.3336 75.648 21.907 76.16C20.5416 78.0373 18.835 79.488 16.787 80.512C14.739 81.4507 12.6483 81.92 10.515 81.92Z" fill="black"/>
<path d="M61.329 58.112C60.9023 58.112 60.561 57.856 60.305 57.344C59.9636 56.832 59.9636 56.3627 60.305 55.936C62.0116 53.9733 63.5903 51.9253 65.041 49.792C66.4916 47.6587 67.8996 45.5253 69.265 43.392C71.569 39.9787 74.0863 36.3093 76.817 32.384C79.633 28.4587 82.6196 24.576 85.777 20.736C89.0196 16.896 92.3476 13.3973 95.761 10.24C99.1743 6.99733 102.63 4.39467 106.129 2.432C109.116 0.810666 111.718 0 113.937 0C116.156 0 117.82 0.725334 118.929 2.176C120.124 3.54133 120.721 5.33333 120.721 7.552C120.721 8.576 120.593 9.64267 120.337 10.752C120.166 11.776 119.825 12.8853 119.313 14.08C119.057 14.6773 118.076 16 116.369 18.048C114.748 20.0107 112.7 22.4427 110.225 25.344C107.75 28.16 105.105 31.104 102.289 34.176C99.5583 37.248 96.913 40.192 94.353 43.008C91.793 45.824 89.5743 48.1707 87.697 50.048C85.905 51.9253 84.753 53.0773 84.241 53.504C83.985 53.76 83.729 53.888 83.473 53.888C82.5343 53.888 82.065 53.376 82.065 52.352C82.065 52.096 82.2356 51.7973 82.577 51.456C83.089 51.0293 84.241 49.8773 86.033 48C87.825 46.1227 90.001 43.8187 92.561 41.088C95.121 38.3573 97.7663 35.4987 100.497 32.512C103.228 29.44 105.788 26.5387 108.177 23.808C110.652 20.992 112.7 18.6027 114.321 16.64C115.942 14.6773 116.838 13.4827 117.009 13.056C117.862 11.0933 118.289 9.216 118.289 7.424C118.289 5.97334 117.905 4.82133 117.137 3.968C116.454 3.02933 115.388 2.56 113.937 2.56C112.145 2.56 109.969 3.28533 107.409 4.736C104.081 6.61333 100.753 9.13067 97.425 12.288C94.097 15.36 90.8543 18.816 87.697 22.656C84.5396 26.4107 81.5956 30.208 78.865 34.048C76.1343 37.888 73.6596 41.472 71.441 44.8C69.9903 46.9333 68.5396 49.1093 67.089 51.328C65.6383 53.5467 64.0596 55.6373 62.353 57.6C62.097 57.9413 61.7556 58.112 61.329 58.112ZM74.513 73.472C71.8676 73.472 69.9903 72.9173 68.881 71.808C67.857 70.6987 67.345 69.3333 67.345 67.712C67.345 66.0053 67.729 64.1707 68.497 62.208C69.3503 60.16 70.2036 58.4107 71.057 56.96C72.337 54.7413 74.0863 52.096 76.305 49.024C78.5236 45.952 80.9556 42.752 83.601 39.424C86.3316 36.0107 89.0623 32.7253 91.793 29.568C94.609 26.4107 97.2543 23.6373 99.729 21.248C102.204 18.7733 104.252 16.9387 105.873 15.744C106.044 15.5733 106.3 15.488 106.641 15.488C107.494 15.488 107.921 15.9147 107.921 16.768C107.921 17.1947 107.75 17.536 107.409 17.792C105.788 18.9013 103.782 20.6507 101.393 23.04C99.0036 25.4293 96.4436 28.2027 93.713 31.36C90.9823 34.432 88.2516 37.632 85.521 40.96C82.8756 44.288 80.4436 47.4453 78.225 50.432C76.0916 53.4187 74.4276 56.0213 73.233 58.24C72.6356 59.3493 71.9103 60.7573 71.057 62.464C70.2036 64.1707 69.777 65.7493 69.777 67.2C69.777 68.3093 70.1183 69.2053 70.801 69.888C71.4836 70.5707 72.721 70.912 74.513 70.912C76.817 70.912 79.4623 70.3573 82.449 69.248C85.521 68.1387 88.6356 66.4747 91.793 64.256C94.9503 61.952 97.8516 59.136 100.497 55.808C100.753 55.4667 101.052 55.296 101.393 55.296C101.905 55.296 102.289 55.552 102.545 56.064C102.886 56.4907 102.844 56.96 102.417 57.472C99.6863 60.9707 96.657 63.9147 93.329 66.304C90.001 68.6933 86.673 70.4853 83.345 71.68C80.1023 72.8747 77.1583 73.472 74.513 73.472ZM73.361 81.408C69.0943 81.408 65.4676 80.512 62.481 78.72C59.5796 76.8427 58.129 74.112 58.129 70.528C58.129 69.5893 58.5556 69.12 59.409 69.12C60.2623 69.12 60.689 69.5893 60.689 70.528C60.689 72.9173 61.9263 74.9227 64.401 76.544C66.961 78.08 70.2036 78.848 74.129 78.848C77.3716 78.848 80.913 78.1653 84.753 76.8C88.6783 75.4347 92.5183 73.1733 96.273 70.016C96.4436 69.8453 96.6996 69.76 97.041 69.76C97.8943 69.76 98.321 70.1867 98.321 71.04C98.321 71.4667 98.1503 71.808 97.809 72.064C94.1396 75.2213 90.129 77.568 85.777 79.104C81.425 80.64 77.2863 81.408 73.361 81.408Z" fill="black"/>
<path d="M101.454 58.112C101.027 58.112 100.686 57.856 100.43 57.344C100.089 56.832 100.089 56.3627 100.43 55.936C104.441 51.4133 108.281 46.848 111.95 42.24C115.705 37.5467 119.673 33.024 123.854 28.672C124.963 27.5627 126.073 26.7947 127.182 26.368C128.377 25.856 129.529 25.6 130.638 25.6C132.345 25.6 133.838 26.0693 135.118 27.008C136.483 27.8613 137.166 28.8853 137.166 30.08C137.166 30.7627 136.825 31.5307 136.142 32.384C135.886 32.64 135.587 32.768 135.246 32.768C134.734 32.768 134.307 32.5547 133.966 32.128C133.71 31.616 133.795 31.104 134.222 30.592C134.393 30.4213 134.478 30.2507 134.478 30.08C134.478 29.3973 133.881 28.8427 132.686 28.416C132.43 28.3307 132.131 28.288 131.79 28.288C131.534 28.2027 131.193 28.16 130.766 28.16C129.998 28.16 129.145 28.3307 128.206 28.672C127.353 29.0133 126.499 29.6107 125.646 30.464C121.55 34.7307 117.625 39.2107 113.87 43.904C110.201 48.512 106.403 53.0773 102.478 57.6C102.222 57.9413 101.881 58.112 101.454 58.112ZM117.71 53.504C117.283 53.504 116.899 53.2907 116.558 52.864C116.302 52.352 116.387 51.8827 116.814 51.456C118.862 48.9813 121.337 46.3787 124.238 43.648C127.225 40.832 130.467 38.4853 133.966 36.608C137.465 34.6453 141.049 33.664 144.718 33.664C145.913 33.664 147.107 33.8347 148.302 34.176C149.582 34.5173 150.777 35.0293 151.886 35.712C152.313 35.968 152.526 36.3093 152.526 36.736C152.526 37.1627 152.313 37.5467 151.886 37.888C151.459 38.144 150.947 38.1013 150.35 37.76C149.582 37.248 148.686 36.864 147.662 36.608C146.638 36.352 145.657 36.224 144.718 36.224C141.475 36.224 138.233 37.12 134.99 38.912C131.747 40.6187 128.718 42.752 125.902 45.312C123.171 47.872 120.782 50.432 118.734 52.992C118.478 53.3333 118.137 53.504 117.71 53.504ZM171.982 72.576C170.531 72.576 169.251 72.1067 168.142 71.168C167.033 70.2293 166.478 68.9493 166.478 67.328C166.478 66.1333 167.075 64.384 168.27 62.08C169.55 59.776 171.001 57.3013 172.622 54.656C174.243 51.9253 175.651 49.4507 176.846 47.232C178.126 44.928 178.766 43.264 178.766 42.24C178.766 40.2773 177.913 38.784 176.206 37.76C174.499 36.736 172.579 36.224 170.446 36.224C167.203 36.224 163.961 37.12 160.718 38.912C157.561 40.6187 154.574 42.7947 151.758 45.44C149.027 48 146.638 50.5173 144.59 52.992C144.334 53.3333 143.993 53.504 143.566 53.504C143.139 53.504 142.755 53.2907 142.414 52.864C142.158 52.352 142.201 51.8827 142.542 51.456C144.59 48.9813 147.065 46.3787 149.966 43.648C152.953 40.832 156.195 38.4853 159.694 36.608C163.193 34.6453 166.777 33.664 170.446 33.664C171.982 33.664 173.603 33.9627 175.31 34.56C177.017 35.072 178.425 35.968 179.534 37.248C180.729 38.528 181.326 40.192 181.326 42.24C181.326 43.52 180.686 45.3547 179.406 47.744C178.211 50.1333 176.803 52.6933 175.182 55.424C173.561 58.0693 172.11 60.5013 170.83 62.72C169.635 64.8533 169.038 66.3893 169.038 67.328C169.038 69.12 170.019 70.016 171.982 70.016C173.945 70.016 175.993 69.1627 178.126 67.456C180.259 65.7493 182.222 63.7867 184.014 61.568C185.891 59.264 187.342 57.3867 188.366 55.936C188.622 55.5947 188.921 55.424 189.262 55.424C189.689 55.424 190.073 55.6373 190.414 56.064C190.841 56.4907 190.841 56.96 190.414 57.472C189.219 59.1787 187.598 61.2267 185.55 63.616C183.587 66.0053 181.411 68.096 179.022 69.888C176.718 71.68 174.371 72.576 171.982 72.576ZM131.406 81.792C129.699 81.792 128.419 81.1947 127.566 80C126.713 78.8053 126.286 77.5253 126.286 76.16C126.286 74.7947 126.67 73.1733 127.438 71.296C128.206 69.4187 129.059 67.584 129.998 65.792C131.022 63.9147 131.833 62.336 132.43 61.056C132.686 60.544 133.07 60.288 133.582 60.288C134.009 60.288 134.35 60.5013 134.606 60.928C134.947 61.2693 134.99 61.696 134.734 62.208C134.222 63.232 133.497 64.64 132.558 66.432C131.619 68.224 130.766 70.016 129.998 71.808C129.23 73.6 128.846 75.0507 128.846 76.16C128.846 78.208 129.699 79.232 131.406 79.232C133.113 79.232 134.691 78.1227 136.142 75.904C137.678 73.6853 139.385 70.8693 141.262 67.456C143.139 64.0427 145.358 60.5013 147.918 56.832C150.478 53.1627 153.593 49.8347 157.262 46.848C160.931 43.8613 165.411 41.6853 170.702 40.32H171.086C171.939 40.32 172.366 40.7467 172.366 41.6C172.366 42.1973 172.025 42.5813 171.342 42.752C166.051 44.1173 161.443 46.5493 157.518 50.048C153.678 53.4613 150.265 57.472 147.278 62.08C144.377 66.6027 141.646 71.2533 139.086 76.032C138.489 77.2267 137.55 78.5067 136.27 79.872C134.99 81.152 133.369 81.792 131.406 81.792ZM105.678 81.792C103.886 81.792 102.563 81.1947 101.71 80C100.942 78.8053 100.558 77.5253 100.558 76.16C100.558 74.7947 100.942 73.1733 101.71 71.296C102.478 69.4187 103.331 67.584 104.27 65.792C105.294 63.9147 106.105 62.336 106.702 61.056C106.958 60.544 107.342 60.288 107.854 60.288C108.281 60.288 108.622 60.5013 108.878 60.928C109.219 61.2693 109.262 61.696 109.006 62.208C108.494 63.232 107.769 64.64 106.83 66.432C105.891 68.224 105.038 70.016 104.27 71.808C103.502 73.6 103.118 75.0507 103.118 76.16C103.118 78.208 103.971 79.232 105.678 79.232C107.385 79.232 108.963 78.1227 110.414 75.904C111.95 73.6853 113.657 70.8693 115.534 67.456C117.411 64.0427 119.63 60.5013 122.19 56.832C124.75 53.1627 127.865 49.8347 131.534 46.848C135.203 43.8613 139.683 41.6853 144.974 40.32H145.358C146.211 40.32 146.638 40.7467 146.638 41.6C146.638 42.1973 146.297 42.5813 145.614 42.752C140.323 44.1173 135.715 46.5493 131.79 50.048C127.95 53.4613 124.537 57.472 121.55 62.08C118.649 66.6027 115.918 71.2533 113.358 76.032C112.761 77.2267 111.822 78.5067 110.542 79.872C109.262 81.152 107.641 81.792 105.678 81.792ZM165.454 81.92C163.662 81.92 161.87 81.7067 160.078 81.28C158.286 80.768 156.75 79.872 155.47 78.592C154.275 77.2267 153.678 75.3067 153.678 72.832C153.678 70.1013 154.403 67.1573 155.854 64C157.305 60.8427 159.011 57.8133 160.974 54.912C162.937 52.0107 164.686 49.6213 166.222 47.744C166.478 47.4027 166.777 47.232 167.118 47.232C167.63 47.232 168.014 47.488 168.27 48C168.611 48.512 168.569 48.9813 168.142 49.408C166.606 51.2853 164.899 53.632 163.022 56.448C161.145 59.264 159.523 62.1227 158.158 65.024C156.878 67.9253 156.238 70.528 156.238 72.832C156.238 75.3067 157.091 77.0133 158.798 77.952C160.59 78.8907 162.809 79.36 165.454 79.36C168.185 79.36 170.83 78.8053 173.39 77.696C176.035 76.5867 178.467 75.2213 180.686 73.6C180.857 73.4293 181.113 73.344 181.454 73.344C182.307 73.344 182.734 73.7707 182.734 74.624C182.734 75.0507 182.563 75.392 182.222 75.648C179.833 77.44 177.187 78.9333 174.286 80.128C171.47 81.3227 168.526 81.92 165.454 81.92Z" fill="black"/>
<path d="M222.481 58.752C221.969 58.752 221.542 58.5387 221.201 58.112C220.945 57.6853 220.988 57.216 221.329 56.704C223.889 52.9493 225.169 49.3227 225.169 45.824C225.169 43.3493 224.401 41.344 222.865 39.808C221.414 38.1867 219.196 37.376 216.209 37.376C211.772 37.376 207.42 39.3387 203.153 43.264C198.972 47.104 194.662 51.9253 190.225 57.728C189.969 57.984 189.713 58.112 189.457 58.112C189.03 58.112 188.689 57.856 188.433 57.344C188.092 56.832 188.092 56.32 188.433 55.808C191.334 51.968 194.236 48.4693 197.137 45.312C200.038 42.1547 203.025 39.6373 206.097 37.76C209.254 35.8827 212.54 34.944 215.953 34.944C220.22 34.944 223.249 35.968 225.041 38.016C226.833 40.064 227.729 42.5387 227.729 45.44C227.729 47.5733 227.345 49.7493 226.577 51.968C225.809 54.1867 224.742 56.2773 223.377 58.24C223.121 58.5813 222.822 58.752 222.481 58.752ZM199.441 74.624C197.649 74.624 196.241 74.0267 195.217 72.832C194.278 71.552 193.809 69.9307 193.809 67.968C193.809 65.408 194.577 62.592 196.113 59.52C197.649 56.448 199.612 53.5467 202.001 50.816C204.476 48 207.036 45.696 209.681 43.904C212.326 42.112 214.716 41.216 216.849 41.216C218.044 41.216 218.641 41.6427 218.641 42.496C218.641 42.8373 218.513 43.1787 218.257 43.52C218.001 43.776 217.66 43.8613 217.233 43.776C215.441 43.6053 213.35 44.3307 210.961 45.952C208.657 47.5733 206.396 49.664 204.177 52.224C201.958 54.784 200.081 57.5147 198.545 60.416C197.094 63.232 196.369 65.792 196.369 68.096C196.369 69.2053 196.582 70.144 197.009 70.912C197.436 71.68 198.246 72.064 199.441 72.064C200.806 72.064 202.257 71.6373 203.793 70.784C205.329 69.8453 206.737 68.736 208.017 67.456C209.297 66.176 210.236 64.9813 210.833 63.872C211.089 63.4453 211.43 63.232 211.857 63.232C212.284 63.232 212.668 63.4453 213.009 63.872C213.35 64.2133 213.35 64.64 213.009 65.152C212.241 66.432 211.132 67.84 209.681 69.376C208.23 70.8267 206.609 72.064 204.817 73.088C203.025 74.112 201.233 74.624 199.441 74.624ZM220.945 64.384C218.129 64.384 215.697 63.5307 213.649 61.824C211.601 60.1173 210.577 57.8133 210.577 54.912C210.577 53.888 210.705 52.8213 210.961 51.712C211.302 50.5173 211.772 49.28 212.369 48C212.625 47.488 213.009 47.232 213.521 47.232C213.948 47.232 214.289 47.4027 214.545 47.744C214.886 48.0853 214.929 48.512 214.673 49.024C214.161 50.048 213.777 51.0293 213.521 51.968C213.35 52.9067 213.265 53.8027 213.265 54.656C213.265 56.96 214.033 58.752 215.569 60.032C217.105 61.2267 218.94 61.824 221.073 61.824C222.95 61.824 224.87 61.3547 226.833 60.416C228.796 59.4773 230.588 57.984 232.209 55.936C232.465 55.5947 232.764 55.424 233.105 55.424C233.532 55.424 233.916 55.68 234.257 56.192C234.598 56.6187 234.598 57.0453 234.257 57.472C232.294 59.8613 230.118 61.6107 227.729 62.72C225.425 63.8293 223.164 64.384 220.945 64.384ZM199.185 82.688C195.516 82.688 192.444 81.4933 189.969 79.104C187.494 76.6293 186.428 73.728 186.769 70.4C186.769 69.5467 187.196 69.12 188.049 69.12C188.39 69.12 188.732 69.2907 189.073 69.632C189.329 69.888 189.414 70.2293 189.329 70.656C189.158 72.8747 190.012 75.0507 191.889 77.184C193.852 79.232 196.326 80.256 199.313 80.256C201.276 80.256 203.366 79.6587 205.585 78.464C207.804 77.2693 210.022 75.264 212.241 72.448C212.241 72.448 212.497 72.1067 213.009 71.424C213.606 70.7413 214.246 70.016 214.929 69.248C215.612 68.3947 216.081 67.712 216.337 67.2C216.593 66.688 216.934 66.432 217.361 66.432C217.788 66.432 218.129 66.6453 218.385 67.072C218.726 67.4133 218.769 67.84 218.513 68.352C218.001 69.376 217.318 70.3573 216.465 71.296C215.612 72.2347 214.844 73.1733 214.161 74.112C211.772 77.184 209.254 79.4027 206.609 80.768C204.049 82.048 201.574 82.688 199.185 82.688Z" fill="black"/>
<path d="M260.852 70.4C259.999 70.4 259.572 70.0587 259.572 69.376C259.572 68.9493 259.743 68.5653 260.084 68.224C262.217 65.92 263.583 63.4453 264.18 60.8C264.777 58.1547 265.076 55.5093 265.076 52.864C265.076 51.072 264.991 49.3653 264.82 47.744C264.735 46.1227 264.692 44.6293 264.692 43.264C264.692 40.8747 265.033 39.1253 265.716 38.016C265.972 37.6747 266.612 37.2907 267.636 36.864C268.66 36.4373 269.641 35.8827 270.58 35.2C271.519 34.432 271.988 33.4933 271.988 32.384C271.988 31.872 271.86 31.36 271.604 30.848C271.519 30.5067 271.22 30.1653 270.708 29.824C270.281 29.4827 269.641 29.312 268.788 29.312C267.935 29.312 266.825 29.6107 265.46 30.208C264.095 30.72 262.431 31.7013 260.468 33.152C257.481 35.3707 253.855 38.3573 249.588 42.112C245.407 45.7813 240.287 50.9013 234.228 57.472C233.972 57.728 233.673 57.856 233.332 57.856C232.905 57.856 232.564 57.6427 232.308 57.216C231.967 56.704 232.009 56.192 232.436 55.68C233.46 54.5707 234.996 52.864 237.044 50.56C239.177 48.1707 241.609 45.6107 244.34 42.88C247.156 40.1493 250.057 37.5467 253.044 35.072C256.031 32.5973 258.889 30.5493 261.62 28.928C264.436 27.3067 266.911 26.496 269.044 26.496C271.263 26.496 272.884 27.6053 273.908 29.824C274.079 30.1653 274.207 30.5493 274.292 30.976C274.377 31.3173 274.42 31.7013 274.42 32.128C274.42 33.664 273.823 35.1573 272.628 36.608C271.519 38.0587 269.855 39.1253 267.636 39.808C267.38 40.576 267.252 41.7707 267.252 43.392C267.252 44.8427 267.295 46.3787 267.38 48C267.551 49.6213 267.636 50.8587 267.636 51.712C267.721 54.1013 267.551 56.6187 267.124 59.264C266.697 61.824 265.759 64.384 264.308 66.944C266.783 65.8347 269.172 64.384 271.476 62.592C273.865 60.7147 275.999 58.4533 277.876 55.808C278.132 55.4667 278.431 55.296 278.772 55.296C279.199 55.296 279.54 55.552 279.796 56.064C280.137 56.576 280.137 57.0453 279.796 57.472C278.175 59.776 276.169 61.9093 273.78 63.872C271.391 65.8347 269.001 67.4133 266.612 68.608C264.308 69.8027 262.388 70.4 260.852 70.4ZM245.108 74.368C243.06 74.2827 241.311 73.5147 239.86 72.064C238.495 70.6133 237.812 68.7787 237.812 66.56C237.812 64.8533 238.239 63.1467 239.092 61.44C240.116 59.136 241.652 56.6187 243.7 53.888C245.833 51.072 248.223 48.384 250.868 45.824C253.599 43.1787 256.287 41.0027 258.932 39.296C259.273 39.1253 259.529 39.04 259.7 39.04C260.468 39.04 260.852 39.4667 260.852 40.32C260.852 40.7467 260.639 41.088 260.212 41.344C257.737 42.88 255.22 44.928 252.66 47.488C250.185 49.9627 247.967 52.5653 246.004 55.296C244.041 57.9413 242.548 60.3307 241.524 62.464C241.183 63.232 240.927 63.9573 240.756 64.64C240.585 65.3227 240.5 65.9627 240.5 66.56C240.5 68.1813 241.012 69.4613 242.036 70.4C243.06 71.3387 244.255 71.808 245.62 71.808C247.583 71.808 249.588 70.8693 251.636 68.992C253.684 67.0293 255.007 63.872 255.604 59.52C256.031 56.6187 256.287 54.4853 256.372 53.12C256.457 51.7547 256.543 50.0907 256.628 48.128C256.628 47.2747 257.055 46.848 257.908 46.848C258.761 46.848 259.188 47.2747 259.188 48.128C259.103 50.2613 258.889 52.864 258.548 55.936C258.292 58.9227 257.695 61.8667 256.756 64.768C255.817 67.6693 254.409 70.0587 252.532 71.936C250.655 73.728 248.18 74.5387 245.108 74.368ZM245.236 82.176C244.212 82.176 242.889 82.0053 241.268 81.664C239.647 81.408 238.025 80.896 236.404 80.128C234.783 79.36 233.417 78.2507 232.308 76.8C231.199 75.3493 230.644 73.5147 230.644 71.296C230.644 70.9547 230.644 70.656 230.644 70.4C230.644 70.0587 230.687 69.7173 230.772 69.376C230.857 68.6933 231.284 68.352 232.052 68.352C232.905 68.352 233.332 68.736 233.332 69.504C233.332 69.8453 233.289 70.1867 233.204 70.528C233.204 70.784 233.204 70.9973 233.204 71.168C233.204 73.3013 233.887 75.008 235.252 76.288C236.617 77.4827 238.239 78.336 240.116 78.848C242.079 79.36 243.828 79.616 245.364 79.616C249.204 79.616 252.703 79.1467 255.86 78.208C259.103 77.184 261.876 75.9893 264.18 74.624C266.569 73.2587 268.404 71.9787 269.684 70.784C269.94 70.528 270.239 70.4 270.58 70.4C271.092 70.4 271.476 70.656 271.732 71.168C272.073 71.68 271.988 72.1493 271.476 72.576C270.111 73.856 268.105 75.264 265.46 76.8C262.9 78.2507 259.913 79.5307 256.5 80.64C253.087 81.664 249.332 82.176 245.236 82.176Z" fill="black"/>
<path d="M309.549 32.256C309.037 32.256 308.61 32.0427 308.269 31.616C308.013 31.104 308.098 30.592 308.525 30.08L317.613 20.224C318.04 19.7973 318.253 19.2427 318.253 18.56C318.253 17.792 317.869 17.1093 317.101 16.512C316.418 15.9147 315.608 15.616 314.669 15.616C313.816 15.616 312.92 16 311.981 16.768C310.957 17.6213 309.378 19.2427 307.245 21.632C305.112 24.0213 302.68 26.88 299.949 30.208C299.949 30.2933 299.821 30.4213 299.565 30.592C299.309 30.6773 299.138 30.72 299.053 30.72H288.941C288.088 30.72 287.661 30.2933 287.661 29.44C287.661 28.5867 288.088 28.16 288.941 28.16H298.413C300.973 24.9173 303.32 22.144 305.453 19.84C307.586 17.4507 309.165 15.7867 310.189 14.848C311.469 13.6533 312.962 13.056 314.669 13.056C316.376 13.056 317.826 13.6107 319.021 14.72C320.216 15.744 320.813 16.9813 320.813 18.432C320.813 19.712 320.386 20.8213 319.533 21.76C319.362 22.016 318.765 22.6987 317.741 23.808C316.802 24.9173 315.65 26.1973 314.285 27.648C312.92 29.0987 311.64 30.5067 310.445 31.872C310.189 32.128 309.89 32.256 309.549 32.256ZM278.701 57.984C277.933 57.984 277.549 57.6 277.549 56.832C277.549 56.576 277.762 56.1493 278.189 55.552C280.408 52.8213 282.968 49.5787 285.869 45.824C288.77 42.0693 291.672 38.144 294.573 34.048C294.829 33.7067 295.128 33.536 295.469 33.536C295.981 33.536 296.365 33.792 296.621 34.304C296.962 34.7307 296.962 35.1573 296.621 35.584C293.72 39.68 290.818 43.648 287.917 47.488C285.016 51.2427 282.328 54.5707 279.853 57.472C279.512 57.8133 279.128 57.984 278.701 57.984ZM293.037 73.856C289.88 73.856 287.533 72.6187 285.997 70.144C285.656 69.4613 285.357 68.7787 285.101 68.096C284.845 67.328 284.717 66.5173 284.717 65.664C284.717 64.2133 285.058 62.5493 285.741 60.672C286.509 58.7093 287.704 56.6187 289.325 54.4C290.264 53.0347 291.629 51.2853 293.421 49.152C295.213 46.9333 297.09 44.6293 299.053 42.24C301.101 39.7653 302.85 37.504 304.301 35.456C304.301 35.3707 304.429 35.2853 304.685 35.2C305.026 35.0293 305.24 34.944 305.325 34.944H316.333C317.186 34.944 317.613 35.3707 317.613 36.224C317.613 37.0773 317.186 37.504 316.333 37.504H305.965C304.514 39.552 302.808 41.7707 300.845 44.16C298.968 46.464 297.133 48.6827 295.341 50.816C293.634 52.9493 292.312 54.656 291.373 55.936C289.922 58.0693 288.898 59.9467 288.301 61.568C287.704 63.104 287.405 64.4693 287.405 65.664C287.405 66.944 287.661 67.968 288.173 68.736C289.197 70.4427 290.818 71.296 293.037 71.296C295.256 71.296 297.517 70.5707 299.821 69.12C302.21 67.584 304.557 65.664 306.861 63.36C309.165 60.9707 311.256 58.496 313.133 55.936C313.389 55.5947 313.73 55.424 314.157 55.424C314.584 55.424 314.968 55.6373 315.309 56.064C315.65 56.4907 315.608 56.96 315.181 57.472C312.024 61.9093 308.44 65.7493 304.429 68.992C300.418 72.2347 296.621 73.856 293.037 73.856ZM288.941 81.536C285.613 81.536 282.925 80.5973 280.877 78.72C278.914 76.7573 278.018 73.984 278.189 70.4C278.189 69.632 278.616 69.248 279.469 69.248C279.81 69.248 280.109 69.376 280.365 69.632C280.706 69.8027 280.834 70.1013 280.749 70.528C280.664 72.9173 281.346 74.9653 282.797 76.672C284.333 78.2933 286.552 79.104 289.453 79.104C291.501 79.104 293.848 78.592 296.493 77.568C299.224 76.4587 302.168 74.7093 305.325 72.32C305.496 72.1493 305.752 72.064 306.093 72.064C306.946 72.064 307.373 72.4907 307.373 73.344C307.373 73.7707 307.202 74.112 306.861 74.368C303.704 76.7573 300.546 78.5493 297.389 79.744C294.317 80.9387 291.501 81.536 288.941 81.536Z" fill="black"/>
<path d="M344.579 57.984C344.152 57.984 343.811 57.7707 343.555 57.344C343.214 56.9173 343.214 56.448 343.555 55.936C345.518 53.376 347.438 50.56 349.315 47.488C351.278 44.3307 352.942 41.4293 354.307 38.784C355.758 36.0533 356.739 34.0907 357.251 32.896C358.616 29.568 360.238 27.2213 362.115 25.856C363.992 24.4053 365.784 23.68 367.491 23.68C369.368 23.68 370.947 24.32 372.227 25.6C373.592 26.88 374.275 28.5013 374.275 30.464C374.275 31.488 373.934 32.768 373.251 34.304C372.995 34.816 372.611 35.072 372.099 35.072C371.672 35.072 371.288 34.9013 370.947 34.56C370.691 34.2187 370.691 33.792 370.947 33.28C371.374 32.256 371.587 31.36 371.587 30.592C371.587 29.3973 371.203 28.3733 370.435 27.52C369.667 26.6667 368.686 26.24 367.491 26.24C366.211 26.24 364.846 26.8373 363.395 28.032C362.03 29.2267 360.75 31.1893 359.555 33.92C359.043 35.2 358.062 37.2053 356.611 39.936C355.16 42.6667 353.454 45.6107 351.491 48.768C349.528 51.9253 347.566 54.8267 345.603 57.472C345.347 57.8133 345.006 57.984 344.579 57.984ZM373.891 73.216C372.782 73.216 371.843 72.96 371.075 72.448C369.624 71.5093 368.899 70.144 368.899 68.352C368.899 66.4747 369.496 64.4693 370.691 62.336C371.971 60.1173 373.336 58.0693 374.787 56.192C376.323 54.2293 377.39 52.6933 377.987 51.584C378.67 50.4747 379.352 49.3653 380.035 48.256C380.718 47.1467 381.059 45.952 381.059 44.672C381.059 43.9893 380.846 43.3067 380.419 42.624C379.992 41.856 379.096 41.216 377.731 40.704C376.366 40.1067 374.19 39.808 371.203 39.808C370.606 39.808 369.923 39.8507 369.155 39.936C368.387 40.0213 367.534 40.064 366.595 40.064H366.467C365.614 40.064 365.187 39.6373 365.187 38.784C365.187 37.9307 365.571 37.504 366.339 37.504C367.022 37.4187 367.747 37.376 368.515 37.376C369.283 37.2907 370.008 37.248 370.691 37.248C374.019 37.248 377.006 37.76 379.651 38.784C382.382 39.7227 383.747 41.5573 383.747 44.288C383.747 45.9947 383.15 47.9147 381.955 50.048C380.419 52.9493 378.627 55.68 376.579 58.24C374.616 60.7147 372.995 63.4453 371.715 66.432C371.63 66.688 371.544 66.944 371.459 67.2C371.459 67.456 371.459 67.712 371.459 67.968C371.459 69.0773 371.8 69.8453 372.483 70.272C372.91 70.528 373.379 70.656 373.891 70.656C375.171 70.656 376.707 70.0587 378.499 68.864C380.376 67.584 382.254 66.0907 384.131 64.384C386.094 62.592 387.843 60.928 389.379 59.392C390.915 57.7707 391.982 56.576 392.579 55.808C392.835 55.4667 393.134 55.296 393.475 55.296C393.902 55.296 394.286 55.552 394.627 56.064C394.968 56.4907 394.926 56.96 394.499 57.472C393.56 58.6667 391.811 60.544 389.251 63.104C386.691 65.5787 384.046 67.8827 381.315 70.016C378.584 72.1493 376.11 73.216 373.891 73.216ZM343.683 69.248C343.171 69.248 342.787 68.992 342.531 68.48C342.19 67.968 342.275 67.4987 342.787 67.072C345.603 64.3413 348.291 61.312 350.851 57.984C353.411 54.5707 355.587 51.456 357.379 48.64C359.256 45.824 360.408 43.8613 360.835 42.752C361.091 42.24 361.475 41.984 361.987 41.984C362.414 41.984 362.755 42.1547 363.011 42.496C363.267 42.8373 363.31 43.264 363.139 43.776C362.712 44.9707 361.56 47.0187 359.683 49.92C357.806 52.8213 355.544 56.0213 352.899 59.52C350.254 62.9333 347.48 66.048 344.579 68.864C344.323 69.12 344.024 69.248 343.683 69.248ZM367.619 82.688C364.718 82.688 362.158 81.9627 359.939 80.512C357.806 79.0613 356.739 76.6293 356.739 73.216C356.739 70.4853 357.507 67.4987 359.043 64.256C360.579 60.928 362.371 57.728 364.419 54.656C366.467 51.4987 368.302 48.8107 369.923 46.592C370.179 46.2507 370.52 46.08 370.947 46.08C371.374 46.08 371.758 46.2933 372.099 46.72C372.44 47.1467 372.398 47.616 371.971 48.128C370.52 50.176 368.771 52.6933 366.723 55.68C364.76 58.6667 363.011 61.7387 361.475 64.896C360.024 67.968 359.299 70.7413 359.299 73.216C359.299 75.52 359.982 77.2693 361.347 78.464C362.798 79.5733 364.718 80.128 367.107 80.128C370.179 80.128 373.507 79.3173 377.091 77.696C380.76 76.0747 383.576 74.0267 385.539 71.552C385.795 71.2107 386.136 71.04 386.563 71.04C386.99 71.04 387.374 71.296 387.715 71.808C388.056 72.2347 388.014 72.6613 387.587 73.088C385.283 75.8187 382.254 78.1227 378.499 80C374.744 81.792 371.118 82.688 367.619 82.688Z" fill="black"/>
<path d="M409.454 61.696C407.918 61.696 406.595 61.3547 405.486 60.672C404.974 60.416 404.718 60.0747 404.718 59.648C404.718 59.2213 404.889 58.88 405.23 58.624C405.657 58.2827 406.126 58.24 406.638 58.496C407.662 58.9227 408.601 59.136 409.454 59.136C411.246 59.136 413.209 58.624 415.342 57.6C417.475 56.4907 419.523 55.0827 421.486 53.376C423.449 51.6693 425.027 49.8347 426.222 47.872C427.502 45.9093 428.142 44.032 428.142 42.24C428.142 38.7413 426.35 36.992 422.766 36.992C418.755 36.992 415.001 38.0587 411.502 40.192C408.089 42.24 404.931 44.8427 402.03 48C399.214 51.072 396.697 54.2293 394.478 57.472C394.222 57.8987 393.881 58.112 393.454 58.112C393.027 58.112 392.686 57.8987 392.43 57.472C392.089 57.0453 392.089 56.576 392.43 56.064C394.649 52.8213 397.251 49.536 400.238 46.208C403.225 42.88 406.595 40.1067 410.35 37.888C414.19 35.584 418.329 34.432 422.766 34.432C425.07 34.432 426.947 35.1147 428.398 36.48C429.934 37.8453 430.702 39.7653 430.702 42.24C430.702 44.544 429.977 46.848 428.526 49.152C427.161 51.3707 425.369 53.4613 423.15 55.424C421.017 57.3013 418.713 58.8373 416.238 60.032C413.763 61.1413 411.502 61.696 409.454 61.696ZM406.51 73.6C404.206 73.6 402.073 73.0027 400.11 71.808C398.233 70.6133 397.294 68.5653 397.294 65.664C397.294 63.2747 398.147 60.7147 399.854 57.984C401.646 55.2533 403.822 52.6507 406.382 50.176C409.027 47.616 411.715 45.3973 414.446 43.52C417.177 41.6427 419.523 40.4053 421.486 39.808C421.571 39.808 421.614 39.808 421.614 39.808C421.699 39.7227 421.785 39.68 421.87 39.68C422.723 39.68 423.15 40.1493 423.15 41.088C423.15 41.6 422.851 41.984 422.254 42.24C420.377 42.8373 418.158 44.032 415.598 45.824C413.123 47.616 410.649 49.7067 408.174 52.096C405.785 54.4 403.779 56.7467 402.158 59.136C400.622 61.5253 399.854 63.7013 399.854 65.664C399.854 67.5413 400.451 68.9067 401.646 69.76C402.926 70.6133 404.547 71.04 406.51 71.04C411.545 71.04 416.622 69.7173 421.742 67.072C426.947 64.3413 431.385 60.5867 435.054 55.808C435.31 55.4667 435.609 55.296 435.95 55.296C436.462 55.296 436.846 55.552 437.102 56.064C437.443 56.4907 437.401 56.96 436.974 57.472C433.134 62.4213 428.441 66.3467 422.894 69.248C417.433 72.1493 411.971 73.6 406.51 73.6ZM405.87 81.28C403.651 81.28 401.39 80.9387 399.086 80.256C396.782 79.5733 394.862 78.464 393.326 76.928C391.705 75.3067 390.894 73.1733 390.894 70.528C390.894 69.5893 391.321 69.12 392.174 69.12C393.027 69.12 393.454 69.5893 393.454 70.528C393.454 72.1493 393.753 73.4293 394.35 74.368C395.033 75.3067 396.185 76.16 397.806 76.928C399.086 77.5253 400.451 77.9947 401.902 78.336C403.438 78.592 404.761 78.72 405.87 78.72C409.027 78.72 412.099 78.1227 415.086 76.928C418.158 75.7333 420.974 74.1973 423.534 72.32C423.705 72.1493 423.961 72.064 424.302 72.064C425.155 72.064 425.582 72.4907 425.582 73.344C425.582 73.7707 425.411 74.112 425.07 74.368C422.339 76.416 419.31 78.08 415.982 79.36C412.739 80.64 409.369 81.28 405.87 81.28Z" fill="black"/>
<path d="M445.682 73.856C443.634 73.856 442.269 73.0453 441.586 71.424C440.989 69.7173 440.69 68.3093 440.69 67.2C440.69 65.0667 441.415 62.5493 442.866 59.648C444.317 56.7467 446.194 53.888 448.498 51.072C450.802 48.256 453.277 45.9093 455.922 44.032C458.567 42.1547 461.085 41.216 463.474 41.216C464.669 41.216 465.266 41.6427 465.266 42.496C465.266 42.8373 465.138 43.1787 464.882 43.52C464.626 43.776 464.285 43.8613 463.858 43.776C461.981 43.6053 459.847 44.3733 457.458 46.08C455.154 47.7013 452.893 49.8347 450.674 52.48C448.541 55.04 446.749 57.6427 445.298 60.288C443.933 62.9333 443.25 65.2373 443.25 67.2C443.25 68.3947 443.463 69.376 443.89 70.144C444.317 70.912 444.914 71.296 445.682 71.296C447.133 71.296 448.797 70.4427 450.674 68.736C452.637 66.944 454.642 64.7253 456.69 62.08C458.738 59.3493 460.701 56.5333 462.578 53.632C464.541 50.6453 466.247 47.9573 467.698 45.568C469.234 43.0933 470.386 41.2587 471.154 40.064C472.775 37.6747 474.397 36.0107 476.018 35.072C477.639 34.048 479.133 33.536 480.498 33.536C482.034 33.536 483.271 34.0053 484.21 34.944C485.234 35.8827 485.746 37.0773 485.746 38.528C485.746 39.808 485.277 41.1733 484.338 42.624C483.655 43.648 482.546 45.3547 481.01 47.744C479.474 50.048 477.895 52.5653 476.274 55.296C474.653 57.9413 473.287 60.3733 472.178 62.592C470.983 65.152 470.386 67.2 470.386 68.736C470.386 70.4427 471.239 71.296 472.946 71.296C474.482 71.296 476.189 70.784 478.066 69.76C480.029 68.736 481.991 67.4133 483.954 65.792C485.917 64.1707 487.751 62.5067 489.458 60.8C491.165 59.008 492.573 57.3867 493.682 55.936C493.938 55.5947 494.237 55.424 494.578 55.424C495.09 55.424 495.474 55.68 495.73 56.192C496.071 56.6187 496.071 57.0453 495.73 57.472C494.621 59.0933 493.085 60.8427 491.122 62.72C489.245 64.5973 487.197 66.3893 484.978 68.096C482.759 69.8027 480.541 71.2107 478.322 72.32C476.103 73.344 474.141 73.856 472.434 73.856C470.813 73.856 469.618 73.3867 468.85 72.448C468.167 71.5093 467.826 70.3147 467.826 68.864C467.826 67.072 468.338 65.024 469.362 62.72C470.471 60.3307 471.837 57.728 473.458 54.912C475.165 52.0107 476.829 49.3227 478.45 46.848C480.157 44.288 481.437 42.368 482.29 41.088C482.887 40.2347 483.186 39.3813 483.186 38.528C483.186 36.9067 482.333 36.096 480.626 36.096C479.687 36.096 478.535 36.5227 477.17 37.376C475.89 38.2293 474.567 39.6373 473.202 41.6C471.325 44.416 469.234 47.6587 466.93 51.328C464.711 54.9973 462.45 58.4533 460.146 61.696C457.842 64.8533 455.453 67.6693 452.978 70.144C450.589 72.6187 448.157 73.856 445.682 73.856ZM435.954 58.112C435.527 58.112 435.186 57.8987 434.93 57.472C434.589 57.0453 434.589 56.576 434.93 56.064C436.381 54.016 438.045 51.7973 439.922 49.408C441.885 46.9333 444.061 44.6293 446.45 42.496C448.839 40.2773 451.399 38.4853 454.13 37.12C456.861 35.6693 459.719 34.944 462.706 34.944C463.645 34.944 464.583 35.072 465.522 35.328C466.461 35.4987 467.357 35.7547 468.21 36.096C468.722 36.352 468.978 36.736 468.978 37.248C468.978 37.5893 468.807 37.9307 468.466 38.272C468.125 38.528 467.698 38.5707 467.186 38.4C467.186 38.4 467.058 38.3573 466.802 38.272C466.546 38.1867 466.205 38.1013 465.778 38.016C465.351 37.8453 464.882 37.7173 464.37 37.632C463.858 37.5467 463.303 37.504 462.706 37.504C459.207 37.504 455.879 38.5707 452.722 40.704C449.565 42.8373 446.621 45.44 443.89 48.512C441.245 51.584 438.941 54.5707 436.978 57.472C436.722 57.8987 436.381 58.112 435.954 58.112ZM468.338 82.048C464.498 82.048 461.725 81.024 460.018 78.976C458.397 76.8427 457.586 74.5387 457.586 72.064C457.586 70.016 458.098 68.0533 459.122 66.176C459.378 65.7493 459.762 65.536 460.274 65.536C460.701 65.536 461.042 65.7493 461.298 66.176C461.639 66.5173 461.682 66.944 461.426 67.456C460.573 68.992 460.146 70.528 460.146 72.064C460.146 73.9413 460.786 75.648 462.066 77.184C463.346 78.72 465.437 79.488 468.338 79.488C471.581 79.488 474.653 78.8053 477.554 77.44C480.541 75.9893 483.357 74.2827 486.002 72.32C486.173 72.1493 486.429 72.064 486.77 72.064C487.623 72.064 488.05 72.4907 488.05 73.344C488.05 73.7707 487.879 74.112 487.538 74.368C484.807 76.416 481.863 78.208 478.706 79.744C475.549 81.28 472.093 82.048 468.338 82.048ZM443.89 81.92C441.074 81.92 438.557 80.9813 436.338 79.104C434.205 77.2267 433.223 74.3253 433.394 70.4C433.394 69.632 433.821 69.248 434.674 69.248C435.015 69.248 435.357 69.376 435.698 69.632C435.954 69.8027 436.039 70.1013 435.954 70.528C435.869 73.6 436.637 75.8613 438.258 77.312C439.879 78.6773 441.757 79.36 443.89 79.36C445.597 79.36 447.303 78.976 449.01 78.208C450.717 77.3547 452.125 76.16 453.234 74.624C453.49 74.2827 453.831 74.112 454.258 74.112C454.685 74.112 455.069 74.3253 455.41 74.752C455.751 75.1787 455.709 75.648 455.282 76.16C453.917 78.0373 452.21 79.488 450.162 80.512C448.114 81.4507 446.023 81.92 443.89 81.92Z" fill="black"/>
<path d="M504.432 73.856C502.384 73.856 501.019 73.0453 500.336 71.424C499.739 69.7173 499.44 68.3093 499.44 67.2C499.44 65.0667 500.165 62.5067 501.616 59.52C503.067 56.5333 504.944 53.632 507.248 50.816C509.637 47.9147 512.155 45.5253 514.8 43.648C517.445 41.6853 519.963 40.704 522.352 40.704C523.376 40.704 523.888 41.1307 523.888 41.984C523.888 42.3253 523.76 42.6667 523.504 43.008C523.333 43.264 523.035 43.3493 522.608 43.264C520.731 43.1787 518.597 43.9893 516.208 45.696C513.904 47.4027 511.643 49.5787 509.424 52.224C507.291 54.8693 505.499 57.5573 504.048 60.288C502.683 62.9333 502 65.2373 502 67.2C502 68.3947 502.213 69.376 502.64 70.144C503.067 70.912 503.664 71.296 504.432 71.296C505.456 71.296 506.736 70.5707 508.272 69.12C509.893 67.6693 511.557 65.92 513.264 63.872C515.056 61.824 516.635 59.904 518 58.112C519.365 56.2347 520.304 54.9547 520.816 54.272C522.864 51.5413 524.869 48.8107 526.832 46.08C528.795 43.3493 530.843 40.7893 532.976 38.4C534.256 36.864 535.92 34.7733 537.968 32.128C540.101 29.4827 542.32 26.6667 544.624 23.68C547.013 20.608 549.275 17.7067 551.408 14.976C553.627 12.16 555.419 9.94133 556.784 8.32C557.723 7.21067 558.832 6.4 560.112 5.888C561.392 5.376 562.629 5.12 563.824 5.12C565.275 5.12 566.512 5.46134 567.536 6.144C568.56 6.74134 569.072 7.63733 569.072 8.832C569.072 10.0267 568.475 11.3493 567.28 12.8C566.171 14.08 564.421 16.128 562.032 18.944C559.728 21.6747 557.083 24.8747 554.096 28.544C551.195 32.2133 548.208 36.0533 545.136 40.064C542.149 43.9893 539.333 47.8293 536.688 51.584C534.128 55.2533 532.037 58.5813 530.416 61.568C528.88 64.4693 528.112 66.6453 528.112 68.096C528.112 70.144 528.923 71.168 530.544 71.168C532.592 71.168 534.939 70.4427 537.584 68.992C540.229 67.5413 542.875 65.664 545.52 63.36C548.251 60.9707 550.555 58.496 552.432 55.936C552.688 55.5947 553.029 55.424 553.456 55.424C553.883 55.424 554.267 55.6373 554.608 56.064C554.949 56.4907 554.907 56.96 554.48 57.472C552.603 60.032 550.256 62.5493 547.44 65.024C544.624 67.4987 541.723 69.5893 538.736 71.296C535.749 72.9173 533.019 73.728 530.544 73.728C528.752 73.728 527.472 73.1733 526.704 72.064C525.936 70.8693 525.552 69.5467 525.552 68.096C525.552 66.3893 526.363 64 527.984 60.928C529.605 57.7707 531.739 54.272 534.384 50.432C537.115 46.5067 540.016 42.496 543.088 38.4C546.16 34.304 549.189 30.3787 552.176 26.624C555.248 22.8693 557.936 19.6267 560.24 16.896C562.544 14.08 564.208 12.1173 565.232 11.008C566 10.0693 566.384 9.344 566.384 8.832C566.384 7.97867 565.701 7.552 564.336 7.552C563.483 7.552 562.501 7.76534 561.392 8.192C560.283 8.61867 559.429 9.17333 558.832 9.856C557.467 11.4773 555.675 13.696 553.456 16.512C551.323 19.2427 549.061 22.144 546.672 25.216C544.283 28.288 542.064 31.1467 540.016 33.792C537.968 36.4373 536.304 38.4853 535.024 39.936C530.672 45.056 526.576 50.3893 522.736 55.936C518.981 61.3973 514.715 66.432 509.936 71.04C509.339 71.6373 508.571 72.2773 507.632 72.96C506.693 73.5573 505.627 73.856 504.432 73.856ZM494.448 58.24C494.021 58.24 493.68 58.0693 493.424 57.728C493.083 57.3013 493.083 56.832 493.424 56.32C495.131 54.272 496.965 52.0107 498.928 49.536C500.891 46.976 503.024 44.544 505.328 42.24C507.717 39.936 510.235 38.0587 512.88 36.608C515.611 35.1573 518.469 34.432 521.456 34.432C522.736 34.432 524.059 34.6027 525.424 34.944C526.875 35.2 528.155 35.7973 529.264 36.736C529.605 36.992 529.776 37.3333 529.776 37.76C529.776 38.1867 529.52 38.5707 529.008 38.912C528.581 39.168 528.155 39.1253 527.728 38.784C526.875 38.1013 525.893 37.632 524.784 37.376C523.76 37.12 522.651 36.992 521.456 36.992C517.957 36.992 514.672 38.144 511.6 40.448C508.613 42.6667 505.797 45.3547 503.152 48.512C500.592 51.6693 498.117 54.6987 495.728 57.6C495.301 58.0267 494.875 58.24 494.448 58.24ZM526.064 82.816C522.992 82.816 520.56 82.048 518.768 80.512C516.976 78.976 516.08 76.544 516.08 73.216C516.08 71.936 516.208 70.6987 516.464 69.504C516.805 68.224 517.275 67.0293 517.872 65.92C518.128 65.4933 518.469 65.28 518.896 65.28C519.323 65.28 519.707 65.4933 520.048 65.92C520.389 66.2613 520.432 66.688 520.176 67.2C519.152 68.992 518.64 70.9973 518.64 73.216C518.64 75.6907 519.237 77.4827 520.432 78.592C521.712 79.7013 523.589 80.256 526.064 80.256C529.307 80.256 532.549 79.4453 535.792 77.824C539.12 76.1173 542.107 74.2827 544.752 72.32C544.923 72.1493 545.179 72.064 545.52 72.064C546.373 72.064 546.8 72.5333 546.8 73.472C546.8 73.8133 546.629 74.112 546.288 74.368C543.643 76.5013 540.528 78.464 536.944 80.256C533.445 81.9627 529.819 82.816 526.064 82.816ZM504.432 82.816C501.019 82.816 498.075 81.6213 495.6 79.232C493.211 76.7573 492.059 73.8133 492.144 70.4C492.144 69.632 492.571 69.248 493.424 69.248C493.765 69.248 494.107 69.376 494.448 69.632C494.704 69.8027 494.789 70.1013 494.704 70.528C494.619 73.2587 495.557 75.5627 497.52 77.44C499.483 79.3173 501.787 80.256 504.432 80.256C506.651 80.256 508.784 79.7013 510.832 78.592C511.173 78.4213 511.387 78.336 511.472 78.336C512.325 78.336 512.752 78.8053 512.752 79.744C512.752 80.256 512.539 80.64 512.112 80.896C509.723 82.176 507.163 82.816 504.432 82.816Z" fill="black"/>
<path d="M572.142 73.472C570.777 73.472 569.795 72.96 569.198 71.936C568.686 70.912 568.345 69.8453 568.174 68.736C568.003 66.5173 568.174 63.7867 568.686 60.544C569.198 57.216 570.094 53.6747 571.374 49.92C572.654 46.1653 574.403 42.5387 576.622 39.04C576.793 38.6987 576.707 38.1867 576.366 37.504C576.025 36.736 575.043 36.1813 573.422 35.84C573.166 35.7547 572.91 35.712 572.654 35.712C572.398 35.6267 572.099 35.584 571.758 35.584C570.649 35.584 569.497 35.9253 568.302 36.608C567.193 37.2053 566.169 38.3147 565.23 39.936C564.121 41.8133 562.585 44.4587 560.622 47.872C558.745 51.2853 556.697 54.4853 554.478 57.472C554.222 57.8133 553.881 57.984 553.454 57.984C553.027 57.984 552.686 57.7707 552.43 57.344C552.089 56.9173 552.089 56.448 552.43 55.936C554.649 52.9493 556.697 49.792 558.574 46.464C560.451 43.136 561.902 40.5333 562.926 38.656C564.121 36.608 565.486 35.1573 567.022 34.304C568.558 33.4507 570.137 33.024 571.758 33.024C573.806 33.024 575.598 33.5787 577.134 34.688C578.67 35.712 579.438 36.9493 579.438 38.4C579.438 38.9973 579.225 39.6373 578.798 40.32C575.897 45.0133 573.806 49.792 572.526 54.656C571.246 59.52 570.606 63.5307 570.606 66.688C570.606 68.3093 570.734 69.4187 570.99 70.016C571.331 70.6133 571.758 70.912 572.27 70.912C573.038 70.912 573.891 70.4853 574.83 69.632C575.854 68.6933 576.707 67.7547 577.39 66.816C578.158 65.792 578.585 65.1947 578.67 65.024C580.121 62.976 581.571 60.3733 583.022 57.216C584.473 54.0587 585.838 50.816 587.118 47.488C588.398 44.16 589.507 41.3013 590.446 38.912C591.129 37.0347 592.409 35.6267 594.286 34.688C596.163 33.664 598.041 33.152 599.918 33.152C601.539 33.152 602.905 33.536 604.014 34.304C605.209 35.072 605.806 36.3093 605.806 38.016C605.806 38.3573 605.806 38.6987 605.806 39.04C605.806 39.296 605.721 39.6373 605.55 40.064C605.379 40.832 604.91 42.3253 604.142 44.544C603.374 46.7627 602.521 49.1947 601.582 51.84C600.643 54.4 599.79 56.704 599.022 58.752C598.254 60.7147 597.785 61.9093 597.614 62.336C597.358 62.848 597.017 63.104 596.59 63.104C596.163 63.104 595.779 62.9333 595.438 62.592C595.182 62.2507 595.139 61.824 595.31 61.312C595.481 60.8853 595.907 59.6907 596.59 57.728C597.358 55.68 598.169 53.4187 599.022 50.944C599.961 48.384 600.814 46.0373 601.582 43.904C602.35 41.6853 602.819 40.2347 602.99 39.552C603.075 39.2107 603.118 38.784 603.118 38.272C603.118 37.3333 602.819 36.6933 602.222 36.352C601.625 35.9253 600.899 35.712 600.046 35.712C598.681 35.712 597.23 36.1387 595.694 36.992C594.243 37.76 593.262 38.7413 592.75 39.936C592.238 41.3013 591.47 43.3493 590.446 46.08C589.422 48.7253 588.227 51.6267 586.862 54.784C585.582 57.856 584.131 60.8427 582.51 63.744C580.889 66.56 579.182 68.9067 577.39 70.784C575.683 72.576 573.934 73.472 572.142 73.472ZM552.558 69.248C552.046 69.248 551.662 68.992 551.406 68.48C551.065 67.968 551.15 67.4987 551.662 67.072C554.905 63.9147 557.379 60.9707 559.086 58.24C560.878 55.5093 562.841 52.2667 564.974 48.512C565.23 48.0853 565.614 47.872 566.126 47.872C566.553 47.872 566.937 48.0853 567.278 48.512C567.619 48.8533 567.619 49.28 567.278 49.792C565.145 53.632 563.139 56.96 561.262 59.776C559.385 62.592 556.782 65.6213 553.454 68.864C553.198 69.12 552.899 69.248 552.558 69.248ZM547.182 119.936C545.134 119.936 543.214 119.339 541.422 118.144C539.545 117.035 538.777 115.115 539.118 112.384C539.118 111.616 539.502 111.232 540.27 111.232C540.611 111.232 540.953 111.36 541.294 111.616C541.55 111.872 541.635 112.213 541.55 112.64C541.379 114.261 541.849 115.456 542.958 116.224C543.982 116.992 545.39 117.376 547.182 117.376C551.363 117.376 555.417 116.309 559.342 114.176C563.267 112.128 566.937 109.355 570.35 105.856C573.849 102.357 577.049 98.4747 579.95 94.208C582.937 89.9413 585.497 85.632 587.63 81.28C589.849 76.928 591.641 72.9173 593.006 69.248C593.262 68.8213 593.817 68.352 594.67 67.84C597.571 66.304 600.387 64.5973 603.118 62.72C605.934 60.8427 608.323 58.5813 610.286 55.936C610.542 55.5093 610.883 55.296 611.31 55.296C611.737 55.296 612.121 55.552 612.462 56.064C612.803 56.576 612.761 57.0453 612.334 57.472C609.859 60.8 607.043 63.4453 603.886 65.408C600.814 67.3707 597.913 69.0773 595.182 70.528C593.817 74.1973 592.025 78.2507 589.806 82.688C587.587 87.1253 584.942 91.52 581.87 95.872C578.883 100.224 575.555 104.192 571.886 107.776C568.302 111.445 564.419 114.389 560.238 116.608C556.057 118.827 551.705 119.936 547.182 119.936ZM570.99 81.92C568.174 81.92 565.87 81.2373 564.078 79.872C562.371 78.5067 561.134 76.7573 560.366 74.624C559.598 72.4907 559.257 70.3573 559.342 68.224C559.342 67.3707 559.769 66.944 560.622 66.944C561.475 66.944 561.902 67.3707 561.902 68.224C561.817 71.2107 562.499 73.8133 563.95 76.032C565.486 78.2507 567.833 79.36 570.99 79.36C573.038 79.36 575.214 78.2933 577.518 76.16C579.822 74.0267 582.083 71.2533 584.302 67.84C586.606 64.4267 588.697 60.8 590.574 56.96C590.83 56.448 591.214 56.192 591.726 56.192C592.153 56.192 592.494 56.3627 592.75 56.704C593.091 57.0453 593.134 57.472 592.878 57.984C591.086 61.6533 588.995 65.3653 586.606 69.12C584.217 72.7893 581.699 75.8613 579.054 78.336C576.409 80.7253 573.721 81.92 570.99 81.92ZM547.822 110.976C546.713 110.976 545.603 110.635 544.494 109.952C543.299 109.355 542.702 108.331 542.702 106.88C542.702 106.624 542.745 106.368 542.83 106.112C542.83 105.856 542.873 105.6 542.958 105.344C543.385 103.808 544.494 102.059 546.286 100.096C547.993 98.2187 550.083 96.2987 552.558 94.336C555.033 92.4587 557.465 90.7947 559.854 89.344C562.329 87.8933 564.377 86.8693 565.998 86.272C566.083 86.1867 566.254 86.144 566.51 86.144C567.363 86.144 567.79 86.6133 567.79 87.552C567.79 87.9787 567.534 88.32 567.022 88.576C565.486 89.1733 563.566 90.1547 561.262 91.52C559.043 92.8853 556.739 94.4213 554.35 96.128C552.046 97.92 550.083 99.6693 548.462 101.376C546.755 103.168 545.731 104.704 545.39 105.984C545.39 106.069 545.39 106.155 545.39 106.24C545.305 106.411 545.262 106.539 545.262 106.624C545.262 107.819 546.073 108.416 547.694 108.416C550.083 108.416 552.729 107.52 555.63 105.728C558.617 104.021 561.603 101.76 564.59 98.944C567.577 96.2133 570.307 93.3547 572.782 90.368C575.342 87.3813 577.347 84.608 578.798 82.048C579.054 81.6213 579.438 81.408 579.95 81.408C580.377 81.408 580.761 81.5787 581.102 81.92C581.443 82.3467 581.443 82.816 581.102 83.328C579.651 85.888 577.603 88.7467 574.958 91.904C572.398 95.0613 569.497 98.0907 566.254 100.992C563.097 103.893 559.897 106.283 556.654 108.16C553.497 110.037 550.553 110.976 547.822 110.976Z" fill="black"/>
<path d="M621.441 60.288C621.014 60.288 620.63 60.1173 620.289 59.776C620.033 59.4347 620.033 58.9653 620.289 58.368C625.238 47.5307 629.078 38.6133 631.809 31.616C634.625 24.5333 636.332 20.1813 636.929 18.56C637.782 16.512 639.062 15.0187 640.769 14.08C642.561 13.056 644.31 12.544 646.017 12.544C647.724 12.544 649.217 12.9707 650.497 13.824C651.777 14.6773 652.417 15.9147 652.417 17.536C652.417 18.56 652.118 19.6693 651.521 20.864C650.412 22.9973 648.236 26.752 644.993 32.128C641.75 37.4187 637.996 44.416 633.729 53.12C633.473 53.632 633.089 53.888 632.577 53.888C632.236 53.888 631.894 53.7173 631.553 53.376C631.212 52.9493 631.169 52.48 631.425 51.968C636.63 41.3867 640.982 33.3227 644.481 27.776C648.065 22.2293 649.857 18.8587 649.857 17.664C649.857 16.8107 649.516 16.1707 648.833 15.744C648.15 15.3173 647.297 15.104 646.273 15.104C644.993 15.104 643.67 15.488 642.305 16.256C640.94 16.9387 639.916 18.048 639.233 19.584C638.636 21.2053 636.972 25.5573 634.241 32.64C631.51 39.6373 627.628 48.5973 622.593 59.52C622.337 60.032 621.953 60.288 621.441 60.288ZM610.689 81.408C609.068 80.0427 608.257 78.4213 608.257 76.544C608.257 74.8373 608.854 73.4293 610.049 72.32C611.158 71.2107 612.524 70.656 614.145 70.656C615.852 70.656 617.26 71.2107 618.369 72.32C619.564 73.4293 620.161 74.8373 620.161 76.544C620.161 78.1653 619.606 79.5307 618.497 80.64C618.241 80.896 617.942 81.024 617.601 81.024C617.174 81.024 616.79 80.8107 616.449 80.384C616.193 79.872 616.278 79.36 616.705 78.848C617.302 78.08 617.601 77.312 617.601 76.544C617.601 75.6053 617.26 74.8373 616.577 74.24C615.98 73.5573 615.212 73.216 614.273 73.216C613.334 73.216 612.524 73.5573 611.841 74.24C611.158 74.8373 610.817 75.6053 610.817 76.544C610.817 77.824 611.286 78.72 612.225 79.232C612.566 79.488 612.737 79.8293 612.737 80.256C612.737 80.6827 612.524 81.0667 612.097 81.408C611.67 81.7493 611.201 81.7493 610.689 81.408Z" fill="black"/>
</svg>
