<svg width="100" height="100" viewBox="0 0 100 100" fill="none" xmlns="http://www.w3.org/2000/svg">
<g clip-path="url(#clip0_375_85)">
<rect width="100" height="100" fill="#F7F7F7"/>
<path d="M51.1348 29.2582C53.7983 27.9789 56.9175 27.7077 59.8682 28.4985L65.0791 29.894C66.6796 30.3228 67.6301 31.9684 67.2012 33.5688L66.8574 34.85C66.4751 36.2767 65.7933 37.6086 64.8516 38.769C63.9097 39.9294 62.7261 40.8963 61.3682 41.6137C60.0103 42.3311 58.5047 42.7863 56.9375 42.9516C55.3701 43.1168 53.7706 42.9897 52.2324 42.5776L50.626 42.1459C49.0254 41.7167 47.38 42.6673 46.9512 44.268L46.5176 45.8813C71.4987 51.5362 90 71.9573 90 96.2836C89.9997 124.979 64.2562 148.242 32.5 148.242C0.743816 148.242 -24.9997 124.979 -25 96.2836C-25 67.5881 0.743628 44.3256 32.5 44.3256C36.0327 44.3256 39.491 44.6133 42.8477 45.1645L45.0195 37.061L45.502 35.3989C46.4601 32.7309 48.4716 30.5376 51.1348 29.2582ZM35.0195 85.77C33.3571 85.2744 31.4075 85.8906 31.1123 87.6C31.0432 88.0002 31.0157 88.4029 31.0322 88.8041C31.0866 90.1195 31.6053 91.3821 32.542 92.4799C33.4788 93.5778 34.8052 94.4771 36.4033 95.0981C38.0014 95.719 39.8221 96.0421 41.7041 96.0395C43.5862 96.0369 45.4718 95.709 47.1934 95.0834C48.9147 94.4579 50.4189 93.5542 51.5732 92.4536C52.7277 91.3528 53.4968 90.088 53.8115 88.7719C53.8607 88.566 53.8982 88.3597 53.9248 88.1537C54.1721 86.2362 52.0258 85.2933 50.166 85.8217L43.6201 87.6821C42.8885 87.8899 42.1126 87.8848 41.3838 87.6674L35.0195 85.77ZM29.2354 66.0004C25.792 66.0004 23.0002 68.7915 23 72.2348C23.0002 75.6781 25.792 78.4702 29.2354 78.4702C32.6785 78.4699 35.4695 75.678 35.4697 72.2348C35.4695 68.7917 32.6785 66.0006 29.2354 66.0004ZM56.9453 66.0004C53.5022 66.0007 50.7112 68.7917 50.7109 72.2348C50.7111 75.6779 53.5022 78.4699 56.9453 78.4702C60.3887 78.4702 63.1805 75.6781 63.1807 72.2348C63.1804 68.7916 60.3886 66.0004 56.9453 66.0004ZM32.9512 17.2241C33.3801 15.6241 35.0249 14.6745 36.625 15.103L40.9365 16.2582C43.5842 16.968 45.9581 18.4324 47.7217 20.4438C48.9884 21.8885 49.8946 23.5637 50.3838 25.3393C50.7268 26.5851 49.9412 27.7814 48.8496 28.4731C47.9461 29.0456 47.1211 29.7223 46.3936 30.4887C45.6219 31.3017 44.9694 32.2058 44.4512 33.1782C43.9488 34.1204 42.8946 34.6999 41.8633 34.4233C38.5178 33.5269 35.639 31.434 33.8613 28.6059C32.084 25.7779 31.5525 22.4453 32.3838 19.3422L32.9512 17.2241Z" fill="#E0E0E0"/>
</g>
<defs>
<clipPath id="clip0_375_85">
<rect width="100" height="100" fill="white"/>
</clipPath>
</defs>
</svg>
