<svg width="100" height="100" viewBox="0 0 100 100" fill="none" xmlns="http://www.w3.org/2000/svg">
<path d="M85.8115 33.3333V41.6667C85.8115 44.512 85.2078 47.3294 84.0349 49.9581C82.8621 52.5869 81.1429 54.9754 78.9757 56.9873C76.8085 58.9992 74.2357 60.5952 71.4041 61.6841C68.5725 62.7729 65.5376 63.3333 62.4728 63.3333H53.4963V80H46.3152V56.6667L46.3834 53.3333C46.8356 47.8915 49.4835 42.8086 53.7978 39.1007C58.112 35.3928 63.7747 33.3331 69.6539 33.3333H85.8115ZM28.3623 20C33.6381 20.0004 38.7803 21.5411 43.0609 24.4042C47.3415 27.2672 50.5438 31.3075 52.2145 35.9533C49.4669 38.1149 47.2159 40.7675 45.5954 43.7533C43.975 46.7391 43.0182 49.9971 42.782 53.3333H39.134C32.4681 53.3333 26.0751 50.875 21.3616 46.4992C16.648 42.1233 14 36.1884 14 30V20H28.3623Z" fill="url(#paint0_linear_207_2)"/>
<defs>
<linearGradient id="paint0_linear_207_2" x1="52.8703" y1="79.8985" x2="-5.11655" y2="-27.7914" gradientUnits="userSpaceOnUse">
<stop stop-color="#07C160"/>
<stop offset="0.328125" stop-color="#3ECF4A" stop-opacity="0.96"/>
<stop offset="0.666667" stop-color="#99E626" stop-opacity="0.400734"/>
<stop offset="1" stop-color="#FAFF00" stop-opacity="0"/>
</linearGradient>
</defs>
</svg>
